<?xml version="1.0" encoding="UTF-8"?>
<svg width="16px" height="16px" viewBox="0 0 16 16" version="1.1" xmlns="http://www.w3.org/2000/svg" xmlns:xlink="http://www.w3.org/1999/xlink">
    <title>partner-logo/cgu</title>
    <g id="partner-logo/cgu" stroke="none" stroke-width="1" fill="none" fill-rule="evenodd">
        <path d="M8.00052621,1.12798659e-13 C3.58245083,1.12798659e-13 6.67910172e-13,3.58139841 6.67910172e-13,8.00052621 C6.67910172e-13,12.4186016 3.58245083,15.9989476 8.00052621,15.9989476 C12.4186016,15.9989476 16,12.4186016 16,8.00052621 C16,3.58139841 12.4186016,1.12798659e-13 8.00052621,1.12798659e-13 L8.00052621,1.12798659e-13 Z M5.44839834,7.12596198 C5.23791357,6.97546537 4.85904098,6.85022693 4.50437414,6.85022693 C3.81819378,6.85022693 3.39827666,7.31118858 3.39827666,8.00263106 C3.39827666,8.69512596 3.81819378,9.15714004 4.50437414,9.15714004 C4.85904098,9.15714004 5.23791357,9.03084917 5.44839834,8.88140499 L5.44839834,9.78227981 C5.24317569,9.91488522 4.89482339,10.0474906 4.43070447,10.0474906 C3.21199763,10.0474906 2.39952641,9.18239821 2.39952641,8.00263106 C2.39952641,6.82496876 3.21199763,5.95882392 4.43070447,5.95882392 C4.89482339,5.95882392 5.24317569,6.09142932 5.44839834,6.22298231 L5.44839834,7.12596198 Z M7.94580017,10.0474916 C6.72498849,10.0485431 5.89988818,9.18450306 5.89883475,8.00578833 C5.89778333,6.8270736 6.71972637,5.95987634 8.04893771,5.95881769 C8.55936328,5.95777149 8.99927646,6.0903769 9.31184635,6.25139775 L9.31289877,7.153325 C9.01822009,6.99230415 8.51200421,6.84812208 8.09208709,6.84812208 C7.32697494,6.85022693 6.89653358,7.31329343 6.89653358,8.00368348 C6.897586,8.69617839 7.33013221,9.15819246 8.03420378,9.15714004 C8.19101493,9.15714004 8.34151154,9.13398671 8.49095573,9.06663159 L8.49095573,8.49516543 L7.89002171,8.49621785 L7.88896928,7.60691969 L9.45181872,7.60481484 L9.45392357,9.40340722 C9.13609156,9.8170098 8.5646254,10.0464382 7.94580017,10.0474916 L7.94580017,10.0474916 Z M13.40788,8.36361244 C13.40788,9.39288298 12.6985463,10.0474906 11.7429455,10.0474906 C10.7810301,10.0474906 10.0769585,9.39288298 10.0769585,8.36361244 L10.0769585,6.0198645 L11.0388739,6.0198645 L11.0388739,8.36361244 C11.0388739,8.83825561 11.314609,9.15714004 11.7429455,9.15714004 C12.1691771,9.15714004 12.4459646,8.83825561 12.4459646,8.36361244 L12.4459646,6.0198645 L13.40788,6.0198645 L13.40788,8.36361244 Z" id="Fill-82" fill="currentColor"></path>
    </g>
</svg>