<?xml version="1.0" encoding="UTF-8"?>
<svg width="29px" height="16px" viewBox="0 0 29 16" version="1.1" xmlns="http://www.w3.org/2000/svg" xmlns:xlink="http://www.w3.org/1999/xlink">
    <title>partner-logo/coles</title>
    <g id="partner-logo/coles" stroke="none" stroke-width="1" fill="none" fill-rule="evenodd">
        <g id="Group" fill="currentColor">
            <path d="M7.37839989,5.85631993 C7.0055999,7.35551991 5.64399992,8.46271989 4.02479995,8.46431989 C2.12079998,8.46431989 0.572,6.91871991 0.573588862,5.00991995 C0.5688,3.10271998 2.11599998,1.55551829 4.01839995,1.55551829 C5.63119992,1.55392 6.9927999,2.67551998 7.37679989,4.16191996 L5.97519991,4.16191996 C5.65519992,3.42271997 4.91119993,2.90271998 4.05199994,2.90751998 C2.88719996,2.90431998 1.94639998,3.84671996 1.94639998,5.00831995 C1.94799998,6.16991993 2.89039996,7.11231991 4.05359994,7.11231991 C4.91279993,7.11231991 5.65679992,6.59391992 5.97679991,5.85791993 L7.37839989,5.85631993 Z" id="Fill-1"></path>
            <path d="M10.90656,7.10624208 C9.74816002,7.10784004 8.80736001,6.16704003 8.80736001,5.00704003 C8.80736001,3.84864002 9.74496002,2.90624001 10.90336,2.90464001 C12.06656,2.90464001 13.0073621,3.84544002 13.0073621,5.00384003 C13.00896,6.16384003 12.07136,7.10624208 10.90656,7.10624208 M10.90496,1.55102885 C9.00096001,1.54944 7.45376,3.09824001 7.45056,5.00384003 C7.45696,6.91264004 9.00736001,8.45664005 10.90976,8.45664005 C12.81856,8.45504005 14.3657601,6.90784004 14.3657601,4.99904003 C14.3625601,3.09184001 12.81376,1.54624 10.90496,1.55102885" id="Fill-3"></path>
            <polygon id="Fill-5" points="14.6504 0.0016 14.6568 8.328 16.1368 8.3264 16.1304 -5.82645043e-14"></polygon>
            <path d="M19.7300799,2.75167995 C20.6036798,2.75007995 21.3060798,3.35967993 21.4164798,4.1292799 L18.0020799,4.1324799 L18.0020799,4.1244799 C18.1060799,3.35167993 18.8516799,2.75167995 19.7300799,2.75167995 M19.8580799,7.12127979 C18.7972799,7.12127979 17.9140799,6.34047982 17.9108799,5.40287985 C17.9140799,5.36767986 17.9172799,5.33407986 17.9204799,5.30207986 L22.8884798,5.29727986 C22.8868798,2.55967996 21.4708798,1.52928 19.7300799,1.53087814 C18.3876799,1.53248 16.44848,2.39807997 16.451676,4.96127987 C16.451676,7.08447979 17.9908799,8.45247974 19.7348799,8.45247974 C21.2116798,8.45247974 22.4644798,7.57407977 22.8052798,6.12127983 L21.4020798,6.12287983 C21.1668798,6.7596798 20.5780798,7.11967979 19.8580799,7.12127979" id="Fill-7"></path>
            <path d="M27.0035198,3.73439988 L28.3251197,3.73279988 C28.3251197,3.73279988 28.5219197,1.5392 25.6307199,1.54235814 C25.6307199,1.54235814 24.3219199,1.5264 23.72832,2.11999997 C23.72832,2.11999997 23.10912,2.58399994 23.10752,3.49919989 C23.10752,3.49919989 23.01792,4.42559985 23.86112,4.92799982 C24.4979199,5.3071998 26.3395198,5.75359977 26.5267198,5.86399977 C26.5267198,5.86399977 27.1667198,6.08479976 27.0595198,6.62559973 C27.0003198,6.92639971 26.6515198,7.2063997 25.7971198,7.2079997 C25.7971198,7.2079997 24.2979199,7.26239969 24.2995199,6.12319975 L22.96032,6.12319975 C22.96032,6.12319975 22.74592,8.53919962 25.8051198,8.44799963 C25.8051198,8.44799963 28.4515197,8.55519962 28.5219197,6.32959974 C28.5219197,6.32959974 28.5875197,5.1743998 27.1683198,4.63999983 C26.1299198,4.25119985 24.3171199,4.05599986 24.5603199,3.18879991 C24.5603199,3.18879991 24.6195199,2.73919994 25.6755199,2.73759994 C25.6755199,2.73759994 26.4259198,2.72479994 26.7491198,3.14559991 C26.7491198,3.14559991 26.9715198,3.4015999 27.0035198,3.73439988" id="Fill-9"></path>
            <polygon id="Fill-11" points="0.5752 15.23984 1.0248 15.23984 1.0248 10.74864 0.5752 10.74864"></polygon>
            <path d="M1.88,11.91888 L2.3056,11.91888 L2.3056,12.34608 L2.3152,12.34608 C2.4448,12.14448 2.7728,11.83408 3.336,11.83408 C3.744,11.83408 4.0832,11.93808 4.3872,12.24048 C4.6352,12.48528 4.8,12.86768 4.8,13.41328 L4.8,15.23888 L4.3744,15.23888 L4.3744,13.41328 C4.3744,12.98128 4.2416,12.67888 4.0592,12.50128 C3.8288,12.27888 3.5248,12.21808 3.336,12.21808 C3.1488,12.21808 2.8448,12.27888 2.6144,12.50128 C2.4384,12.67248 2.3056,12.96848 2.3056,13.38128 L2.3056,15.23888 L1.88,15.23888 L1.88,11.91888 Z" id="Fill-13"></path>
            <path d="M5.75808,14.25632 C5.77088,14.88672 6.19968,14.93632 6.35168,14.93632 C6.75168,14.93632 6.97248,14.69792 6.97248,14.34112 C6.97248,13.88672 6.55968,13.78272 6.31008,13.68032 C5.97088,13.56352 5.43008,13.38272 5.43008,12.75712 C5.43008,12.28992 5.76448,11.83552 6.37728,11.83552 C6.86688,11.83552 7.27968,12.21152 7.27968,12.72672 L7.27968,12.73952 L6.85728,12.73952 C6.82688,12.33312 6.54528,12.21632 6.35968,12.21632 C6.01728,12.21632 5.85568,12.48992 5.85568,12.71392 C5.85568,13.06752 6.20608,13.18752 6.44928,13.26752 C6.83808,13.39392 7.39488,13.60672 7.39488,14.29152 L7.39488,14.30432 C7.39488,14.86912 7.05088,15.31872 6.35168,15.31872 C5.89728,15.31872 5.33088,15.01472 5.33088,14.29152 L5.33088,14.25632 L5.75808,14.25632 Z" id="Fill-14"></path>
            <path d="M10.82528,15.2392 L10.42528,15.2392 L10.42528,14.724 L10.41088,14.724 C10.29088,14.972 9.96928,15.3176 9.34848,15.3176 C8.69568,15.3176 8.35328,15.0024 8.20768,14.82 C7.97248,14.5288 7.91808,14.1048 7.91808,13.7528 L7.91808,11.9192 L8.34208,11.9192 L8.34208,13.7464 C8.34208,14.1656 8.43488,14.4376 8.58048,14.62 C8.80928,14.8808 9.11968,14.9352 9.34848,14.9352 C9.58688,14.9352 9.84128,14.8808 10.05408,14.668 C10.24928,14.4744 10.39968,14.2552 10.39968,13.6728 L10.39968,11.9192 L10.82528,11.9192 L10.82528,15.2392 Z" id="Fill-15"></path>
            <path d="M11.62528,11.91888 L12.05088,11.91888 L12.05088,12.40048 L12.06208,12.40048 C12.26208,11.93328 12.63808,11.85808 12.99648,11.83408 L12.99648,12.28528 C12.69888,12.30768 12.44448,12.41808 12.28128,12.61168 C12.13568,12.79248 12.05088,13.02928 12.05088,13.29648 L12.05088,15.23888 L11.62528,15.23888 L11.62528,11.91888 Z" id="Fill-16"></path>
            <path d="M16.82688,15.2392 L16.39968,15.2392 L16.39968,14.6568 L16.39008,14.6568 C16.02528,15.2024 15.44288,15.3176 15.09728,15.3176 C14.05408,15.3176 13.31328,14.5224 13.31328,13.5704 C13.31328,12.684 14.00928,11.8344 15.09728,11.8344 C15.45568,11.8344 16.03808,11.9496 16.39008,12.5016 L16.39968,12.5016 L16.39968,11.9192 L16.82688,11.9192 L16.82688,15.2392 Z M15.09728,14.9352 C15.81248,14.9352 16.42688,14.3592 16.42688,13.5816 C16.42688,12.8536 15.86048,12.2168 15.09728,12.2168 C14.36928,12.2168 13.73568,12.7448 13.73568,13.588 C13.73568,14.3288 14.28288,14.9352 15.09728,14.9352 L15.09728,14.9352 Z" id="Fill-17"></path>
            <path d="M17.59728,11.91888 L18.02288,11.91888 L18.02288,12.34608 L18.03248,12.34608 C18.16208,12.14448 18.49008,11.83408 19.05328,11.83408 C19.45968,11.83408 19.80048,11.93808 20.10288,12.24048 C20.35248,12.48528 20.51568,12.86768 20.51568,13.41328 L20.51568,15.23888 L20.09168,15.23888 L20.09168,13.41328 C20.09168,12.98128 19.95728,12.67888 19.77488,12.50128 C19.54608,12.27888 19.24048,12.21808 19.05328,12.21808 C18.86608,12.21808 18.56208,12.27888 18.33168,12.50128 C18.15568,12.67248 18.02288,12.96848 18.02288,13.38128 L18.02288,15.23888 L17.59728,15.23888 L17.59728,11.91888 Z" id="Fill-18"></path>
            <path d="M24.58784,14.26256 C24.37504,14.67536 23.93184,15.31856 22.93664,15.31856 C21.89984,15.31856 21.15424,14.50896 21.15424,13.58256 C21.15424,12.62416 21.94784,11.83376 22.93664,11.83376 C23.51904,11.83376 24.26624,12.12656 24.58784,12.92176 L24.12064,12.92176 C23.85344,12.41776 23.36864,12.21776 22.95104,12.21776 C22.29984,12.21776 21.57824,12.70096 21.57824,13.56976 C21.57824,14.31696 22.15424,14.93616 22.95104,14.93616 C23.64064,14.93616 23.98624,14.51696 24.12064,14.26256 L24.58784,14.26256 Z" id="Fill-19"></path>
            <path d="M25.49728,13.7344 C25.52928,14.3824 26.13408,14.936 26.78528,14.936 C27.39168,14.9232 27.82208,14.5664 27.97568,14.1536 L28.42208,14.1536 C28.19328,14.8144 27.55488,15.3168 26.79168,15.3168 C25.86368,15.3168 25.06208,14.5664 25.06208,13.5808 C25.06208,12.64 25.81888,11.8512 26.78528,11.8352 C27.51328,11.84 28.02848,12.272 28.26528,12.6848 C28.46048,13 28.52768,13.32 28.52768,13.6128 C28.52768,13.6544 28.52128,13.6912 28.52128,13.7344 L25.49728,13.7344 Z M28.08928,13.352 C27.95488,12.568 27.31968,12.2176 26.79168,12.2176 C26.26848,12.2176 25.61888,12.568 25.49728,13.352 L28.08928,13.352 Z" id="Fill-20"></path>
        </g>
    </g>
</svg>