<?xml version="1.0" encoding="UTF-8"?>
<svg width="148px" height="16px" viewBox="0 0 148 16" version="1.1" xmlns="http://www.w3.org/2000/svg" xmlns:xlink="http://www.w3.org/1999/xlink">
    <title>logo/full</title>
    <g id="logo/full" stroke="none" stroke-width="1" fill="none" fill-rule="evenodd">
        <path d="M9.95831987,3.64656716 C7.17814518,1.28782409 3.64780842,-0.00492511331 -1.69887439e-15,-1.40209378e-05 L-1.69887439e-15,15.400597 C-1.69887439e-15,15.400597 2.70655897,8.20059701 9.95831987,3.64656716 M21.8820032,15.400597 L21.8820032,5.96551752e-16 L21.8820032,5.96551752e-16 C13.365568,0.00131653248 6.46085246,6.8944696 6.45557351,15.400597 L21.8820032,15.400597 Z" id="Shape" fill="currentColor" fill-rule="nonzero"></path>
        <path d="M121.776026,2.67223881 C120.121486,2.67223881 118.727561,3.46985075 118.132213,4.83820896 L118.132213,2.82507463 L115.212859,2.82507463 L115.212859,15.3910448 L118.211115,15.3910448 L118.211115,9.40656716 C118.211115,7.05671642 119.270307,5.71462687 121.594313,5.71462687 C121.651696,5.71462687 121.716252,5.71462687 121.776026,5.71462687 L121.776026,2.67223881 Z" id="Path" fill="currentColor" fill-rule="nonzero"></path>
        <path d="M89.617706,2.67223881 C87.9631664,2.67223881 86.5692407,3.46985075 85.9738934,4.83820896 L85.9738934,2.82507463 L83.0545396,2.82507463 L83.0545396,15.3910448 L86.0527948,15.3910448 L86.0527948,9.40656716 C86.0527948,7.05671642 87.1119871,5.71462687 89.4359935,5.71462687 C89.4933764,5.71462687 89.5579321,5.71462687 89.617706,5.71462687 L89.617706,2.67223881 Z" id="Path" fill="currentColor" fill-rule="nonzero"></path>
        <path d="M111.179321,11.0041791 C110.765687,12.2435821 109.835606,13.198806 108.028045,13.198806 C106.170923,13.2428871 104.628548,11.7771602 104.580291,9.92238806 L113.775897,9.92238806 C113.837125,9.60782459 113.863584,9.28749685 113.854798,8.96716418 C113.854798,4.99343284 111.581002,2.43820896 107.705267,2.43820896 C104.52769,2.43820896 101.584426,5.06507463 101.584426,9.04358209 C101.584426,13.3014925 104.606591,15.7779104 108.01609,15.7779104 C111.038255,15.7779104 113.037092,13.998806 113.699386,11.8041791 L111.179321,11.0041791 Z M104.656801,7.72776119 C104.778329,6.13076464 106.12838,4.90712318 107.731567,4.94089552 C109.797351,4.94089552 110.780032,6.25671642 110.839806,7.72776119 L104.656801,7.72776119 Z" id="Shape" fill="currentColor" fill-rule="nonzero"></path>
        <path d="M90.6314701,11.9856716 C90.7844911,13.4041791 92.1808078,15.7779104 95.8222294,15.7779104 C99.0261066,15.7779104 100.575444,13.6620896 100.575444,11.7540299 C100.575444,9.8961194 99.3369305,8.45134328 96.9603231,7.93313433 L95.0475606,7.54626866 C94.2728918,7.39104478 93.7827464,6.90149254 93.7827464,6.23044776 C93.7827464,5.45671642 94.5311147,4.78567164 95.5903069,4.78567164 C97.2639742,4.78567164 97.8115024,5.94626866 97.9143134,6.66746269 L100.446333,5.95104478 C100.240711,4.71164179 99.1026171,2.44059701 95.5903069,2.44059701 C92.9817771,2.44059701 90.9662036,4.29850746 90.9662036,6.50029851 C90.9662036,8.22925373 92.1282068,9.67402985 94.3494023,10.1635821 L96.2095638,10.5767164 C97.218546,10.7820896 97.682391,11.2931343 97.682391,11.9689552 C97.682391,12.7426866 97.0368336,13.4137313 95.7959289,13.4137313 C94.1939903,13.4137313 93.342811,12.4083582 93.24,11.2644776 L90.6314701,11.9856716 Z" id="Path" fill="currentColor" fill-rule="nonzero"></path>
        <polygon id="Path" fill="currentColor" fill-rule="nonzero" points="135.839612 2.82507463 132.688336 2.82507463 129.434249 11.8041791 126.10126 2.82507463 122.794572 2.82507463 127.911212 15.3910448 130.907076 15.3910448"></polygon>
        <path d="M145.130856,11.0041791 C144.717221,12.2435821 143.787141,13.198806 141.97958,13.198806 C140.122458,13.2428871 138.580083,11.7771602 138.531826,9.92238806 L147.727431,9.92238806 C147.78866,9.60782459 147.815119,9.28749685 147.806333,8.96716418 C147.806333,4.99343284 145.532536,2.43820896 141.656801,2.43820896 C138.479225,2.43820896 135.535961,5.06507463 135.535961,9.04358209 C135.535961,13.3014925 138.558126,15.7779104 141.967625,15.7779104 C144.98979,15.7779104 146.988627,13.998806 147.650921,11.8041791 L145.130856,11.0041791 Z M138.608336,7.72776119 C138.729864,6.13076464 140.079915,4.90712318 141.683102,4.94089552 C143.748885,4.94089552 144.731567,6.25671642 144.791341,7.72776119 L138.608336,7.72776119 Z" id="Shape" fill="currentColor" fill-rule="nonzero"></path>
        <path d="M75.1596123,2.43820896 C71.4129887,2.43820896 68.6490468,5.25134328 68.6490468,9.0961194 C68.6490468,12.9408955 71.4129887,15.7826866 75.1596123,15.7826866 C78.9062359,15.7826866 81.6964782,12.9719403 81.6964782,9.0961194 C81.6964782,5.22029851 78.9325363,2.43820896 75.1596123,2.43820896 M75.1596123,13.0961194 C73.3257512,13.0961194 71.6473021,11.7014925 71.6473021,9.0961194 C71.6473021,6.49074627 73.3209693,5.14865672 75.1596123,5.14865672 C76.9982553,5.14865672 78.6743134,6.49074627 78.6743134,9.0961194 C78.6743134,11.7014925 77.0197738,13.0961194 75.1596123,13.0961194" id="Shape" fill="currentColor" fill-rule="nonzero"></path>
        <path d="M65.3351858,0 L62.6238449,0 L62.6238449,1.19402985 C62.6238449,2.30447761 62.0284976,3.15701493 60.6847819,3.15701493 L60.5484976,3.15701493 L60.5484976,5.49253731 L62.365622,5.49253731 L62.365622,11.8041791 C62.365622,14.1540299 63.8121486,15.5462687 66.1361551,15.5462687 C66.7603039,15.5747183 67.3838402,15.4780937 67.9700162,15.2620896 L67.9700162,12.7856716 C67.632446,12.8498929 67.2902122,12.8866305 66.9466882,12.8955224 C65.834895,12.8955224 65.3447496,12.4322388 65.3447496,11.321791 L65.3447496,5.49253731 L67.9532795,5.49253731 L67.9532795,2.82507463 L65.3351858,2.82507463 L65.3351858,0 Z" id="Path" fill="currentColor" fill-rule="nonzero"></path>
        <path d="M53.6745073,2.43820896 C49.9278837,2.43820896 47.1639418,5.25134328 47.1639418,9.0961194 C47.1639418,12.9408955 49.9278837,15.7826866 53.6745073,15.7826866 C57.4211309,15.7826866 60.2089822,12.9719403 60.2089822,9.0961194 C60.2089822,5.22029851 57.4450404,2.43820896 53.6745073,2.43820896 M53.6745073,13.0961194 C51.8406462,13.0961194 50.1598061,11.7014925 50.1598061,9.0961194 C50.1598061,6.49074627 51.8334733,5.14865672 53.6745073,5.14865672 C55.5155412,5.14865672 57.1868174,6.49074627 57.1868174,9.0961194 C57.1868174,11.7014925 55.5346688,13.0961194 53.6745073,13.0961194" id="Shape" fill="currentColor" fill-rule="nonzero"></path>
        <path d="M29.8869144,15.3910448 L29.8869144,7.93552239 C29.8869144,6.33552239 30.8935057,5.14865672 32.4954443,5.14865672 C34.2001939,5.14865672 34.9246527,6.28298507 34.9246527,7.72776119 L34.9246527,15.3910448 L37.8726979,15.3910448 L37.8726979,7.93552239 C37.8726979,6.38567164 38.9055897,5.14865672 40.4836187,5.14865672 C42.1572859,5.14865672 42.9104362,6.25671642 42.9104362,7.72776119 L42.9104362,15.3910448 L45.8034895,15.3910448 L45.8034895,7.23820896 C45.8034895,3.90925373 43.634895,2.46208955 41.3610985,2.46208955 C39.7328595,2.46208955 38.2528595,3.03044776 37.2797415,4.68059701 C36.6078837,3.2119403 35.161357,2.46208955 33.5068174,2.46208955 C32.0865913,2.46208955 30.5109532,3.13313433 29.7864943,4.42268657 L29.7864943,2.82268657 L26.9173506,2.82268657 L26.9173506,15.3910448 L29.8869144,15.3910448 Z" id="Path" fill="currentColor" fill-rule="nonzero"></path>
    </g>
</svg>