<?xml version="1.0" encoding="UTF-8"?>
<svg width="113px" height="100px" viewBox="0 0 113 100" version="1.1" xmlns="http://www.w3.org/2000/svg" xmlns:xlink="http://www.w3.org/1999/xlink">
    <title>logo/full-horizontal</title>
    <g id="logo/full-horizontal" stroke="none" stroke-width="1" fill="none" fill-rule="evenodd">
        <g id="Motorserve_Secondary_RGB_Black_Logo" fill="currentColor" fill-rule="nonzero">
            <path d="M51.5,18.8287903 C37.1215756,6.65226866 18.8648749,-0.0224992427 -2.27373675e-13,2.13162821e-14 L-2.27373675e-13,79.5 C-2.27373675e-13,79.5 13.9912411,42.334215 51.5,18.8287903 M113,79.5 L113,-8.52651283e-14 L112.965697,-8.52651283e-14 C69.0837825,0.0462471995 33.5273085,35.61807 33.5,79.5 L113,79.5 Z" id="Shape"></path>
            <path d="M88.5,87.5 C86.986924,87.5 85.7129514,88.2697242 85.1674969,89.5436177 L85.1674969,87.6462476 L82.5,87.6462476 L82.5,99.5 L85.2384807,99.5 L85.2384807,93.8540731 C85.2384807,91.6372675 86.2098381,90.3710712 88.3356164,90.3710712 L88.5,90.3710712 L88.5,87.5 Z" id="Path"></path>
            <path d="M58.5,87.5 C56.9878656,87.5 55.7146857,88.2697242 55.1695706,89.5436177 L55.1695706,87.6462476 L52.5,87.6462476 L52.5,99.5 L55.2405103,99.5 L55.2405103,93.8540731 C55.2405103,91.6372675 56.2075296,90.3710712 58.3357187,90.3710712 L58.5,90.3710712 L58.5,87.5 Z" id="Path"></path>
            <path d="M78.9816352,95.5122324 C78.5991124,96.6590214 77.7231352,97.5688073 76.0285592,97.5688073 C74.2986264,97.6031252 72.8636342,96.2390181 72.8115425,94.5107034 L81.4259559,94.5107034 C81.4818993,94.2159633 81.5062633,93.9161063 81.4986352,93.616208 C81.4986352,89.8929664 79.3679832,87.5 75.7378419,87.5 C72.7618146,87.5 70,89.9655963 70,93.6888379 C70,97.6796636 72.8306687,100 76.024734,100 C78.8554027,100 80.7182887,98.3333333 81.3494513,96.2767584 L78.9816352,95.5122324 Z M73,92.5 C73.1175721,91.0699561 74.4270359,89.9731515 75.984127,90.0005005 C77.9960317,90.0005005 78.9484127,91.1808197 79,92.5 L73,92.5 Z" id="Shape"></path>
            <path d="M59.5,96.4449541 C59.6482546,97.7752294 60.9825462,100 64.4587269,100 C67.5213552,100 69,98.016055 69,96.2270642 C69,94.4380734 67.8295688,93.1345566 65.5472279,92.6490826 L63.7213552,92.2859327 C62.9800821,92.1406728 62.5119097,91.6819572 62.5119097,91.0550459 C62.5119097,90.3287462 63.2258727,89.6980122 64.2402464,89.6980122 C65.8437372,89.6980122 66.3626283,90.7874618 66.4601643,91.4640673 L68.8790554,90.7874618 C68.6800821,89.6406728 67.5954825,87.5 64.2402464,87.5 C61.7472279,87.5 59.8199179,89.2392966 59.8199179,91.2958716 C59.8199179,92.9166667 60.9318275,94.2698777 63.0542094,94.7362385 L64.8293634,95.1185015 C65.7930185,95.3134557 66.2377823,95.795107 66.2377823,96.425841 C66.2377823,97.1521407 65.6213552,97.779052 64.4353183,97.779052 C62.9059548,97.779052 62.0944559,96.8348624 61.9930185,95.7721713 L59.5,96.4449541 Z" id="Path"></path>
            <polygon id="Path" points="98.6033187 87.5 95.6089543 96.0753247 92.543206 87.5 89.5 87.5 94.2038197 99.5 96.9614903 99.5 101.5 87.5"></polygon>
            <path d="M110.481635,95.5122324 C110.099112,96.6590214 109.223135,97.5688073 107.528559,97.5688073 C105.798626,97.6031252 104.363634,96.2390181 104.311543,94.5107034 L112.925956,94.5107034 C112.981899,94.2159633 113.006263,93.9161063 112.998635,93.616208 C112.998635,89.8929664 110.867983,87.5 107.237842,87.5 C104.261815,87.5 101.5,89.9655963 101.5,93.6888379 C101.5,97.6796636 104.330669,100 107.524734,100 C110.355403,100 112.222114,98.3333333 112.849451,96.2767584 L110.481635,95.5122324 Z M104.5,92.5 C104.617648,91.0685622 105.929485,89.9712612 107.488095,90.0005738 C109.496032,90.0005738 110.448413,91.1808584 110.5,92.5 L104.5,92.5 Z" id="Shape"></path>
            <path d="M44.9887289,87.5 C41.5435191,87.5 39,90.133792 39,93.7385321 C39,97.3432722 41.5435191,100 44.9887289,100 C48.4339386,100 51,97.366208 51,93.7385321 C51,90.1108563 48.4564809,87.5 44.9887289,87.5 M45.25,97.5 C43.5531977,97.5 42,96.187115 42,93.7268994 C42,91.2666838 43.5531977,90 45.25,90 C46.9468023,90 48.5,91.2666838 48.5,93.7268994 C48.5,96.187115 46.9694767,97.5 45.25,97.5" id="Shape"></path>
            <path d="M36.0151348,85 L33.4570721,85 L33.4570721,86.1220574 C33.4570721,87.1566324 32.898459,87.9515816 31.6309851,87.9515816 L31.5,87.9515816 L31.5,90.1120176 L33.2143643,90.1120176 L33.2143643,96.0075737 C33.2143643,98.1984384 34.5781508,99.4954607 36.7702256,99.4954607 C37.3587289,99.5218938 37.9466905,99.4326862 38.5,99.2330134 L38.5,96.9052196 C38.178652,96.9662096 37.8525119,96.9993004 37.5253165,97.0041128 C36.4774353,97.0041128 36.0151348,96.5705042 36.0151348,95.5359292 L36.0151348,90.0968033 L38.476885,90.0968033 L38.476885,87.6206697 L36.0151348,87.6206697 L36.0151348,85 Z" id="Path"></path>
            <path d="M24.9887289,87.5 C21.5435191,87.5 19,90.133792 19,93.7385321 C19,97.3432722 21.5435191,100 24.9887289,100 C28.4339386,100 31,97.366208 31,93.7385321 C31,90.1108563 28.4564809,87.5 24.9887289,87.5 M25.25,97.5 C23.5531977,97.5 22,96.187115 22,93.7268994 C22,91.2666838 23.5531977,90 25.25,90 C26.9468023,90 28.5,91.2666838 28.5,93.7268994 C28.5,96.187115 26.9883721,97.5 25.25,97.5" id="Shape"></path>
            <path d="M2.74843379,99.5 L2.74843379,92.5801262 C2.74843379,91.0962145 3.68222078,89.9946372 5.16418233,89.9946372 C6.74443724,89.9946372 7.43249082,91.0470032 7.43249082,92.3908517 L7.43249082,99.5 L10.1582415,99.5 L10.1582415,92.5801262 C10.1582415,91.1454259 11.1147116,89.9946372 12.5739901,89.9946372 C14.1277814,89.9946372 14.8196155,91.0242902 14.8196155,92.3908517 L14.8196155,99.5 L17.5,99.5 L17.5,91.9290221 C17.5,88.8400631 15.492547,87.5 13.3868006,87.5 C11.8745949,87.5 10.5173904,88.026183 9.60628645,89.559306 C8.98628213,88.19653 7.64798013,87.5 6.11687189,87.5 C4.80125297,87.5 3.34197451,88.1246057 2.6728235,89.3208202 L2.6728235,87.8369085 L2.55795385e-13,87.8369085 L2.55795385e-13,99.4962145 L2.74843379,99.5 Z" id="Path"></path>
        </g>
    </g>
</svg>