<?xml version="1.0" encoding="UTF-8"?>
<svg width="22px" height="16px" viewBox="0 0 22 16" version="1.1" xmlns="http://www.w3.org/2000/svg" xmlns:xlink="http://www.w3.org/1999/xlink">
    <title>partner-logo/NRMA</title>
    <g id="partner-logo/NRMA" stroke="none" stroke-width="1" fill="none" fill-rule="evenodd">
        <g id="Group" fill="currentColor">
            <polygon id="Fill-21" points="3.68501333 15.3175467 3.99114667 15.3175467 3.99114667 13.68768 3.68501333 13.68768"></polygon>
            <polygon id="Fill-22" points="5.56554667 14.8656 4.87968 13.6869333 4.51808 13.6869333 4.51808 15.3168 4.79328 15.3168 4.79328 14.0677333 5.52821333 15.3168 5.84181333 15.3168 5.84181333 13.6869333 5.56554667 13.6869333"></polygon>
            <path d="M7.51338667,14.8354133 C7.51338667,14.5090133 7.31392,14.4002133 6.93098667,14.3479467 C6.64832,14.3063467 6.59498667,14.2402133 6.59498667,14.1090133 C6.59498667,13.9831467 6.69098667,13.8946133 6.87445333,13.8946133 C7.06112,13.8946133 7.16032,13.9682133 7.18912,14.13888 L7.46752,14.13888 C7.43552,13.8274133 7.22538667,13.6663467 6.87445333,13.6663467 C6.53418667,13.6663467 6.30698667,13.86688 6.30698667,14.1335467 C6.30698667,14.4386133 6.49258667,14.5570133 6.88085333,14.6103467 C7.14538667,14.6530133 7.22218667,14.7106133 7.22218667,14.8610133 C7.22218667,15.0114133 7.09312,15.1127467 6.91392,15.1127467 C6.63872,15.1127467 6.57152,14.97408 6.55125333,14.8119467 L6.25898667,14.8119467 C6.28245333,15.1191467 6.46912,15.3399467 6.91392,15.3399467 C7.27338667,15.3399467 7.51338667,15.1191467 7.51338667,14.8354133" id="Fill-23"></path>
            <path d="M9.24362667,14.6781867 L9.24362667,13.6872533 L8.93856,13.6872533 L8.93856,14.65472 C8.93856,14.99072 8.82122667,15.09632 8.58549333,15.09632 C8.34336,15.09632 8.24736,14.9725867 8.24736,14.67392 L8.24736,13.6872533 L7.94229333,13.6872533 L7.94229333,14.6973867 C7.94229333,15.11552 8.17482667,15.33952 8.58229333,15.33952 C9.01322667,15.33952 9.24362667,15.1048533 9.24362667,14.6781867" id="Fill-24"></path>
            <path d="M10.5435733,14.61248 C10.74624,14.5602133 10.90624,14.43008 10.90624,14.1751467 L10.90624,14.1655467 C10.90624,13.8327467 10.6545067,13.68768 10.2971733,13.68768 L9.75104,13.68768 L9.75104,15.31648 L10.0539733,15.31648 L10.0539733,14.6583467 L10.24704,14.6583467 L10.6737067,15.31648 L11.00224,15.31648 L10.5435733,14.61248 Z M10.0539733,14.4418133 L10.0539733,13.9223467 L10.2971733,13.9223467 C10.4913067,13.9223467 10.6075733,13.98528 10.6075733,14.1730133 L10.6075733,14.1815467 C10.6075733,14.3554133 10.49984,14.4418133 10.2971733,14.4418133 L10.0539733,14.4418133 Z" id="Fill-25"></path>
            <path d="M11.8696533,13.6874667 L11.3245867,15.3162667 L11.6093867,15.3162667 L11.7373867,14.912 L12.3592533,14.912 L12.4893867,15.3162667 L12.8040533,15.3162667 L12.2664533,13.6874667 L11.8696533,13.6874667 Z M11.8077867,14.6912 L12.04992,13.9349333 L12.28992,14.6912 L11.8077867,14.6912 Z" id="Fill-26"></path>
            <polygon id="Fill-27" points="14.2488533 14.8656 13.5629867 13.6869333 13.20032 13.6869333 13.20032 15.3168 13.4765867 15.3168 13.4765867 14.0677333 14.2104533 15.3168 14.52512 15.3168 14.52512 13.6869333 14.2488533 13.6869333"></polygon>
            <path d="M15.7717333,15.0926933 C15.472,15.0926933 15.2970667,14.8772267 15.2970667,14.5092267 L15.2970667,14.49216 C15.2970667,14.12736 15.4826667,13.9044267 15.7696,13.9044267 C16.0053333,13.9044267 16.1248,14.0142933 16.1589333,14.2308267 L16.4672,14.2308267 C16.4298667,13.8478933 16.1418667,13.6612267 15.7674667,13.6612267 C15.3141333,13.6612267 14.976,14.0036267 14.976,14.4932267 L14.976,14.51136 C14.976,15.01376 15.2608,15.3390933 15.7717333,15.3390933 C16.1589333,15.3390933 16.4373333,15.14176 16.4853333,14.7492267 L16.1898667,14.7492267 C16.1568,14.9796267 15.9989333,15.0926933 15.7717333,15.0926933" id="Fill-28"></path>
            <polygon id="Fill-29" points="16.9498667 13.6865067 16.9498667 15.3163733 18.008 15.3163733 18.008 15.07744 17.2528 15.07744 17.2528 14.60064 17.8277333 14.60064 17.8277333 14.3745067 17.2528 14.3745067 17.2528 13.9265067 17.9685333 13.9265067 17.9685333 13.6865067"></polygon>
            <path d="M13.9717333,1.04693333 C14.3632,1.04693333 14.7130667,0.930666667 14.7130667,0.767466667 C14.7130667,0.719466667 14.6448,0.741866667 14.6128,0.751466667 C14.4848,0.7856 14.1818667,0.869866667 13.8618667,0.8016 C13.8309333,0.8656 13.7669333,0.940266667 13.5738667,0.982933333 C13.6794667,1.01813333 13.8266667,1.04693333 13.9717333,1.04693333" id="Fill-30"></path>
            <path d="M15.64672,3.55317333 C15.5357867,3.44544 15.41952,3.34304 15.2989867,3.24597333 L13.4141867,3.24597333 C13.5357867,3.34090667 13.6509867,3.44330667 13.76192,3.55317333 L15.64672,3.55317333 Z" id="Fill-31"></path>
            <path d="M8.328,1.48853333 C8.21706667,1.53973333 8.0752,1.57173333 7.9472,1.57173333 C7.69866667,1.57173333 7.55146667,1.52906667 7.5088,1.52906667 C7.48426667,1.52906667 7.47466667,1.5376 7.47466667,1.55466667 C7.47466667,1.63146667 7.6944,1.79786667 8.0944,1.79786667 C8.30026667,1.79786667 8.48053333,1.75626667 8.61706667,1.65493333 C8.51146667,1.63146667 8.38133333,1.56853333 8.328,1.48853333" id="Fill-32"></path>
            <path d="M14.82176,1.05525333 C15.3668267,1.05525333 15.8244267,0.78752 15.8244267,0.632853333 C15.8244267,0.60832 15.8094933,0.583786667 15.7742933,0.590186667 C15.64736,0.615786667 15.42656,0.792853333 14.8548267,0.792853333 C14.8388267,0.91232 14.7652267,0.98272 14.5732267,1.04245333 C14.7012267,1.05418667 14.7364267,1.05525333 14.82176,1.05525333" id="Fill-33"></path>
            <path d="M14.9998933,3.01984 C14.8398933,2.90890667 14.6734933,2.80650667 14.5028267,2.71370667 L12.5454933,2.71370667 C12.73856,2.80117333 12.9252267,2.90464 13.10336,3.01984 L14.9998933,3.01984 Z" id="Fill-34"></path>
            <path d="M9.28213333,0.577066667 C9.54986667,0.577066667 9.73546667,0.794666667 9.73546667,1.03466667 C9.73546667,1.21066667 9.63413333,1.34293333 9.49226667,1.4432 C9.5104,1.46453333 9.5264,1.48373333 9.5456,1.50293333 C9.5712,1.5328 9.59893333,1.5616 9.6256,1.58826667 C9.67146667,1.63306667 9.71626667,1.67466667 9.7632,1.70986667 C9.77386667,1.71946667 9.7856,1.728 9.79626667,1.73546667 C9.8464,1.77173333 9.89653333,1.80053333 9.9488,1.8272 C9.9712,1.83786667 9.99573333,1.8496 10.0213333,1.85813333 C10.048,1.8688 10.0757333,1.87946667 10.1045333,1.88693333 C10.1589333,1.90186667 10.2154667,1.91146667 10.2762667,1.91573333 C10.2901333,1.9168 10.304,1.91893333 10.3189333,1.92 L10.3189333,2.20266667 C10.3189333,2.42346667 10.5418667,2.544 10.8,2.544 C11.0570667,2.544 11.28,2.42346667 11.28,2.20266667 L11.28,1.92 C11.2949333,1.91893333 11.3077333,1.9168 11.3226667,1.91573333 C11.3834667,1.91146667 11.4389333,1.90186667 11.4954667,1.88693333 C11.5232,1.87946667 11.5509333,1.8688 11.5776,1.85813333 C11.6032,1.8496 11.6266667,1.83786667 11.6512,1.8272 C11.7024,1.80053333 11.7514667,1.77173333 11.8026667,1.73546667 C11.8133333,1.728 11.8250667,1.71946667 11.8357333,1.70986667 C11.8826667,1.67466667 11.9274667,1.63306667 11.9722667,1.58826667 C12,1.5616 12.0266667,1.5328 12.0533333,1.50293333 C12.0714667,1.48373333 12.0896,1.46453333 12.1056,1.4432 C11.9648,1.34293333 11.8645333,1.21066667 11.8645333,1.03466667 C11.8645333,0.794666667 12.0490667,0.577066667 12.3168,0.577066667 C12.4469333,0.577066667 12.5493333,0.632533333 12.6538667,0.696533333 C12.6912,0.642133333 12.7264,0.5888 12.7616,0.5344 C12.6282667,0.442666667 12.4725333,0.388266667 12.3232,0.388266667 C11.9242667,0.388266667 11.6682667,0.708266667 11.6682667,1.03466667 C11.6682667,1.21066667 11.7482667,1.35466667 11.8485333,1.472 C11.7312,1.58933333 11.552,1.75466667 11.28,1.74613333 L11.28,0.340266667 C11.28,0.119466667 11.0570667,1.16529009e-13 10.8,1.16529009e-13 C10.5418667,1.16529009e-13 10.3189333,0.119466667 10.3189333,0.340266667 L10.3189333,1.74613333 C10.0469333,1.75466667 9.86773333,1.58933333 9.74933333,1.472 C9.85066667,1.35466667 9.9296,1.21066667 9.9296,1.03466667 C9.9296,0.708266667 9.67466667,0.388266667 9.27573333,0.388266667 C9.1264,0.388266667 8.97066667,0.442666667 8.83733333,0.5344 C8.87253333,0.5888 8.90773333,0.642133333 8.94506667,0.696533333 C9.05066667,0.632533333 9.152,0.577066667 9.28213333,0.577066667 L9.28213333,0.577066667 Z M10.8,0.1504 C10.9237333,0.1504 11.0229333,0.181333333 11.0805333,0.235733333 L10.8,0.509866667 L10.5184,0.235733333 C10.576,0.181333333 10.6762667,0.1504 10.8,0.1504 L10.8,0.1504 Z M10.464,0.357333333 L10.464,0.354133333 L10.8,0.680533333 L11.1338667,0.354133333 L11.1338667,0.357333333 L11.1338667,0.5856 L10.8,0.910933333 L10.464,0.5856 L10.464,0.357333333 Z M10.464,0.756266667 L10.8,1.0816 L11.1338667,0.756266667 L11.1338667,0.987733333 L10.8,1.312 L10.464,0.987733333 L10.464,0.756266667 Z M10.464,1.15733333 L10.8,1.48373333 L11.1338667,1.15733333 L11.1338667,1.3888 L10.8,1.71413333 L10.464,1.3888 L10.464,1.15733333 Z M10.464,1.55946667 L10.8,1.8848 L11.1338667,1.55946667 L11.1338667,1.79093333 L10.8,2.11626667 L10.464,1.79093333 L10.464,1.55946667 Z M10.464,1.96053333 L10.8,2.28693333 L11.1338667,1.96053333 L11.1338667,2.18666667 C11.1338667,2.3136 10.9962667,2.3936 10.8,2.3936 C10.6016,2.3936 10.464,2.3136 10.464,2.18666667 L10.464,1.96053333 Z" id="Fill-35"></path>
            <path d="M12.7581867,0.78336 C12.89472,0.868693333 13.0600533,0.900693333 13.2552533,0.900693333 C13.4685867,0.900693333 13.73312,0.84096 13.73312,0.74816 C13.73312,0.705493333 13.65632,0.71296 13.5112533,0.718293333 C13.32032,0.72576 13.0920533,0.70976 12.88192,0.596693333 C12.88192,0.596693333 12.8808533,0.596693333 12.8808533,0.59776 C12.84032,0.659626667 12.7997867,0.721493333 12.7581867,0.782293333 L12.7581867,0.78336" id="Fill-36"></path>
            <path d="M9.29152,1.40522667 C9.25098667,1.35189333 9.20298667,1.28896 9.14538667,1.21322667 C8.98325333,1.31562667 8.83605333,1.37856 8.51498667,1.36362667 C8.45632,1.36149333 8.42965333,1.36362667 8.42965333,1.39776 C8.42965333,1.44896 8.60885333,1.55456 8.83072,1.55456 C9.00032,1.55456 9.18058667,1.48949333 9.29152,1.40522667" id="Fill-37"></path>
            <path d="M12.05088,1.04277333 C12.05088,1.14837333 12.1106133,1.24544 12.2151467,1.31050667 C12.2503467,1.26464 12.2898133,1.21344 12.3346133,1.15370667 C12.24928,1.10250667 12.21088,1.02997333 12.2610133,0.96704 C12.3079467,0.90624 12.3815467,0.92864 12.4551467,0.988373333 C12.48928,0.939306667 12.5255467,0.889173333 12.5618133,0.83904 C12.4967467,0.79104 12.42528,0.753706667 12.3442133,0.753706667 C12.1618133,0.753706667 12.05088,0.889173333 12.05088,1.04277333" id="Fill-38"></path>
            <path d="M14.6853333,2.10517333 C14.6853333,2.07957333 14.6597333,2.05824 14.6010667,2.06784 C14.4250667,2.09450667 14.1978667,2.09130667 13.9685333,2.01237333 C13.9077333,2.12330667 13.8064,2.18090667 13.6688,2.21824 C13.8330667,2.27797333 14.0122667,2.29930667 14.1306667,2.29930667 C14.4634667,2.29930667 14.6853333,2.18304 14.6853333,2.10517333" id="Fill-39"></path>
            <path d="M13.0832,1.36352 C12.7621333,1.37952 12.616,1.31552 12.4528,1.21312 C12.3952,1.28778667 12.3493333,1.35072 12.3066667,1.40512 C12.4186667,1.48938667 12.5989333,1.55445333 12.7674667,1.55445333 C12.9893333,1.55445333 13.1685333,1.44885333 13.1685333,1.39765333 C13.1685333,1.36352 13.1429333,1.36032 13.0832,1.36352" id="Fill-40"></path>
            <path d="M13.2644267,2.1552 C13.6142933,2.1552 13.7956267,2.0208 13.7956267,1.96 C13.7956267,1.9344 13.7806933,1.92906667 13.7550933,1.92906667 C13.7124267,1.92906667 13.5588267,1.94826667 13.4574933,1.944 C13.23456,1.93546667 13.10656,1.8992 12.9700267,1.83093333 C12.8782933,1.9344 12.8014933,1.95573333 12.67136,1.97493333 C12.8238933,2.08693333 13.07136,2.1552 13.2644267,2.1552" id="Fill-41"></path>
            <path d="M13.504,1.79797333 C13.904,1.79797333 14.1248,1.63157333 14.1248,1.55477333 C14.1248,1.53770667 14.1152,1.52917333 14.0906667,1.52917333 C14.048,1.52917333 13.8997333,1.57184 13.6522667,1.57184 C13.5253333,1.57184 13.3824,1.53984 13.2704,1.48864 C13.2170667,1.56864 13.0869333,1.63157333 12.9824,1.65504 C13.1189333,1.75637333 13.2992,1.79797333 13.504,1.79797333" id="Fill-42"></path>
            <path d="M11.7227733,1.94794667 C11.6619733,1.97888 11.59904,2.00448 11.5339733,2.02154667 C11.6225067,2.19434667 11.7515733,2.31274667 11.9339733,2.33301333 C12.0353067,2.34474667 12.1313067,2.30208 12.13024,2.25941333 C12.13024,2.23381333 12.0523733,2.22314667 12.0001067,2.19754667 C11.8721067,2.14314667 11.7953067,2.07168 11.7227733,1.94794667" id="Fill-43"></path>
            <path d="M14.2269867,4.08746667 L16.12992,4.08746667 C16.0456533,3.97973333 15.9581867,3.8784 15.8664533,3.77813333 L13.9773867,3.77813333 C14.0648533,3.87733333 14.14912,3.97973333 14.2269867,4.08746667" id="Fill-44"></path>
            <path d="M12.4832,2.01568 C12.4832,1.98688 12.4298667,1.98794667 12.3861333,1.98261333 C12.2944,1.96874667 12.1546667,1.94954667 11.9936,1.76288 C11.9413333,1.80874667 11.8890667,1.84821333 11.8378667,1.88341333 C11.9317333,2.02101333 12.0672,2.10954667 12.1802667,2.12874667 C12.3552,2.16181333 12.4832,2.06688 12.4832,2.01568" id="Fill-45"></path>
            <path d="M15.15296,1.65205333 C15.15296,1.63392 15.1444267,1.60938667 15.1102933,1.60938667 C15.0078933,1.60938667 14.91616,1.68298667 14.59296,1.68298667 C14.51616,1.68298667 14.3700267,1.66698667 14.2590933,1.63178667 C14.2164267,1.75125333 14.08416,1.83018667 13.9572267,1.86432 C14.1204267,1.91232 14.2718933,1.93152 14.4254933,1.93152 C14.8596267,1.93152 15.15296,1.75658667 15.15296,1.65205333" id="Fill-46"></path>
            <path d="M13.35616,1.02506667 C13.06816,1.0432 12.89536,1.008 12.68096,0.894933333 C12.6340267,0.961066667 12.5892267,1.024 12.5454933,1.08586667 C12.6734933,1.18293333 12.85696,1.22986667 13.0404267,1.22986667 C13.2622933,1.22986667 13.47776,1.136 13.47776,1.06773333 C13.47776,1.03466667 13.43296,1.0208 13.35616,1.02506667" id="Fill-47"></path>
            <path d="M7.33941333,1.63232 C7.22848,1.66538667 7.08341333,1.68352 7.00661333,1.68352 C6.68234667,1.68352 6.59061333,1.60885333 6.48821333,1.60885333 C6.45408,1.60885333 6.44554667,1.63445333 6.44554667,1.65152 C6.44554667,1.75605333 6.73888,1.92992 7.17301333,1.92992 C7.32661333,1.92992 7.47914667,1.91392 7.64128,1.86485333 C7.51434667,1.82965333 7.38208,1.75072 7.33941333,1.63232" id="Fill-48"></path>
            <path d="M12.5186133,1.86048 C12.7234133,1.86048 12.8695467,1.76768 12.8706133,1.71754667 C12.87168,1.68341333 12.8375467,1.68448 12.7863467,1.68768 C12.57088,1.70048 12.3991467,1.65674667 12.21248,1.52874667 C12.20608,1.53728 12.1986133,1.54688 12.19648,1.54794667 C12.1591467,1.59381333 12.1207467,1.63541333 12.0834133,1.67488 C12.21568,1.79008 12.35328,1.86048 12.5186133,1.86048" id="Fill-49"></path>
            <path d="M13.35712,2.30837333 C13.35712,2.27424 13.2621867,2.29344 13.1277867,2.28277333 C12.9037867,2.26250667 12.7629867,2.20597333 12.5944533,2.10037333 C12.5496533,2.18144 12.4493867,2.24224 12.3437867,2.24437333 C12.4568533,2.32544 12.7224533,2.43850667 12.9741867,2.43850667 C13.2152533,2.43850667 13.35712,2.36064 13.35712,2.30837333" id="Fill-50"></path>
            <path d="M14.3717333,1.13333333 C14.2874667,1.14293333 14.1253333,1.19306667 13.9109333,1.19306667 C13.8170667,1.19306667 13.7104,1.1824 13.5984,1.14933333 C13.5557333,1.22613333 13.448,1.29333333 13.2773333,1.32853333 C13.3786667,1.3872 13.5781333,1.42346667 13.7146667,1.42346667 C14.0826667,1.42346667 14.4314667,1.304 14.4314667,1.176 C14.4314667,1.1504 14.4197333,1.128 14.3717333,1.13333333" id="Fill-51"></path>
            <path d="M15.552,1.13226667 C15.552,1.10773333 15.5402667,1.08533333 15.4922667,1.09493333 C15.4336,1.10773333 15.1157333,1.2848 14.5930667,1.21866667 C14.576,1.33066667 14.4352,1.43413333 14.2474667,1.4768 C14.3413333,1.49493333 14.5056,1.50773333 14.6506667,1.50773333 C15.1445333,1.50773333 15.552,1.2944 15.552,1.13226667" id="Fill-52"></path>
            <path d="M7.33216,9.13546667 L5.43029333,9.13546667 C5.48256,9.24533333 5.53909333,9.352 5.60309333,9.4576 L7.53376,9.4576 C7.46336,9.352 7.39616,9.2464 7.33216,9.13546667" id="Fill-53"></path>
            <path d="M8.33632,10.3698133 L6.33205333,10.3698133 C6.44832,10.4818133 6.56992,10.58848 6.69898667,10.6919467 L8.74058667,10.6919467 C8.60085333,10.5927467 8.46538667,10.4850133 8.33632,10.3698133" id="Fill-54"></path>
            <path d="M9.28533333,11.8437333 C9.808,11.9301333 10.3456,11.9856 10.8010667,11.9856 C11.2554667,11.9856 11.7930667,11.9301333 12.3157333,11.8437333 C12.6282667,11.7818667 12.9269333,11.7008 13.2117333,11.6016 L8.38933333,11.6016 C8.67413333,11.7008 8.9728,11.7818667 9.28533333,11.8437333" id="Fill-55"></path>
            <path d="M9.22485333,10.9864533 L7.11392,10.9864533 C7.29312,11.10272 7.48298667,11.2093867 7.68138667,11.3085867 L10.0845867,11.3085867 C9.78912,11.2392533 9.50112,11.1293867 9.22485333,10.9864533" id="Fill-56"></path>
            <path d="M7.75509333,9.75413333 L5.79882667,9.75413333 C5.87669333,9.86506667 5.96202667,9.97173333 6.05162667,10.0752 L8.03349333,10.0752 C7.93642667,9.9728 7.84362667,9.86506667 7.75509333,9.75413333" id="Fill-57"></path>
            <path d="M7.46762667,2.29898667 C7.58709333,2.29898667 7.76629333,2.27765333 7.93056,2.21792 C7.79189333,2.18058667 7.69056,2.12298667 7.63082667,2.01312 C7.40149333,2.09098667 7.17429333,2.09418667 6.99936,2.06752 C6.93856,2.05898667 6.91402667,2.07925333 6.91402667,2.10485333 C6.91402667,2.18272 7.13482667,2.29898667 7.46762667,2.29898667" id="Fill-58"></path>
            <path d="M7.62176,3.77813333 L5.73269333,3.77813333 C5.64096,3.87733333 5.55349333,3.9808 5.46816,4.08746667 L7.37109333,4.08746667 C7.45109333,3.97973333 7.53429333,3.87733333 7.62176,3.77813333" id="Fill-59"></path>
            <path d="M4.57386667,4.48544 L4.0064,4.48544 C3.8688,4.48544 3.82613333,4.52810667 3.82613333,4.65824 L3.82613333,6.88010667 L1.84746667,4.58890667 C1.78026667,4.51104 1.7408,4.48544 1.61066667,4.48544 L0.180266667,4.48544 C0.0576,4.48544 3.87956334e-13,4.54410667 3.87956334e-13,4.65824 L3.87956334e-13,8.57397333 C3.87956334e-13,8.68810667 0.0576,8.74570667 0.180266667,8.74570667 L0.747733333,8.74570667 C0.869333333,8.74570667 0.919466667,8.68810667 0.919466667,8.57397333 L0.919466667,6.04597333 L3.12746667,8.61877333 C3.20426667,8.70410667 3.24266667,8.74570667 3.40693333,8.74570667 L4.57386667,8.74570667 C4.71146667,8.74570667 4.74666667,8.70304 4.74666667,8.57397333 L4.74666667,4.65824 C4.74666667,4.52810667 4.71146667,4.48544 4.57386667,4.48544" id="Fill-60"></path>
            <path d="M11.5165867,11.3073067 L13.9197867,11.3073067 C14.1181867,11.2091733 14.3080533,11.1035733 14.4872533,10.98624 L12.37632,10.98624 C12.1000533,11.13024 11.8120533,11.2401067 11.5165867,11.3073067" id="Fill-61"></path>
            <path d="M14.06656,9.45632 L15.99936,9.45632 C16.06016,9.35178667 16.1188267,9.24405333 16.1710933,9.13525333 L14.2692267,9.13525333 C14.2052267,9.24618667 14.1380267,9.35178667 14.06656,9.45632" id="Fill-62"></path>
            <path d="M6.77802667,1.05525333 C6.86336,1.05525333 6.89749333,1.05418667 7.02549333,1.04245333 C6.83349333,0.98272 6.75882667,0.91232 6.74389333,0.792853333 C6.17216,0.792853333 5.95136,0.615786667 5.82442667,0.590186667 C5.78922667,0.583786667 5.77429333,0.60832 5.77429333,0.632853333 C5.77429333,0.78752 6.23189333,1.05525333 6.77802667,1.05525333" id="Fill-63"></path>
            <path d="M20.19776,4.62186667 C20.1636267,4.53653333 20.1220267,4.48533333 20.0014933,4.48533333 L18.28096,4.48533333 C18.1700267,4.48533333 18.10176,4.51946667 18.0676267,4.62186667 L16.6318933,8.5984 C16.59776,8.69866667 16.6276267,8.74666667 16.7300267,8.74666667 L17.3700267,8.74666667 C17.48096,8.74666667 17.52256,8.7328 17.5652267,8.6144 L17.8372267,7.86026667 L19.5332267,7.86026667 L19.7892267,8.53333333 C19.8596267,8.71893333 19.9086933,8.74666667 20.0612267,8.74666667 L21.53856,8.74666667 C21.69536,8.74666667 21.73056,8.69866667 21.6708267,8.53013333 L20.19776,4.62186667 Z M18.1102933,7.12 L18.6724267,5.55946667 L19.26016,7.12 L18.1102933,7.12 Z" id="Fill-64"></path>
            <path d="M16.2561067,4.48544 L14.4587733,4.48544 C14.2945067,4.48544 14.2635733,4.54624 14.2123733,4.66464 L13.3611733,6.73504 L12.4833067,4.66464 C12.4321067,4.53770667 12.3809067,4.48544 12.21024,4.48544 L10.5249067,4.48544 C10.3873067,4.48544 10.3435733,4.52810667 10.3435733,4.65824 L10.3435733,8.57397333 C10.3435733,8.70304 10.3873067,8.74570667 10.5249067,8.74570667 L11.08704,8.74570667 C11.22464,8.74570667 11.26304,8.70304 11.26304,8.57397333 L11.26304,6.04597333 L12.3467733,8.56757333 C12.4225067,8.72437333 12.4491733,8.74570667 12.56864,8.74570667 L13.32704,8.74570667 C13.4827733,8.74570667 13.52224,8.71690667 13.5819733,8.57610667 L14.61344,6.05450667 L14.61344,8.57397333 C14.61344,8.70304 14.6561067,8.74570667 14.7937067,8.74570667 L16.26464,8.74570667 C16.40224,8.74570667 16.4289067,8.70304 16.4289067,8.57397333 L16.4289067,4.65824 C16.4289067,4.52810667 16.3937067,4.48544 16.2561067,4.48544" id="Fill-65"></path>
            <path d="M13.5675733,10.0749867 L15.5483733,10.0749867 C15.6379733,9.97152 15.7233067,9.86485333 15.8033067,9.75392 L13.84704,9.75392 C13.7585067,9.86698667 13.6657067,9.97258667 13.5675733,10.0749867" id="Fill-66"></path>
            <path d="M12.8602667,10.6906667 L14.9008,10.6906667 C15.0298667,10.5882667 15.1525333,10.4826667 15.2688,10.3696 L13.2656,10.3696 C13.1354667,10.4858667 13.0010667,10.5925333 12.8602667,10.6906667" id="Fill-67"></path>
            <path d="M7.01546667,8.57397333 L7.01546667,6.70090667 L8.20693333,8.59424 C8.28906667,8.71797333 8.3264,8.74677333 8.46293333,8.74677333 L9.9968,8.74677333 C10.1237333,8.74677333 10.1568,8.64757333 10.0906667,8.53664 L8.9568,6.77770667 C9.5712,6.60704 10.0405333,6.30090667 10.0405333,5.58517333 C10.0405333,4.91210667 9.56373333,4.48544 8.88213333,4.48544 L5.38133333,4.48544 C5.24373333,4.48544 5.2,4.52917333 5.2,4.65824 L5.2,8.57397333 C5.2,8.70304 5.24373333,8.74677333 5.38133333,8.74677333 L6.84266667,8.74677333 C6.97173333,8.74677333 7.01546667,8.70304 7.01546667,8.57397333 L7.01546667,8.57397333 Z M7.01546667,5.01344 L7.58506667,5.01344 C7.99573333,5.01344 8.2592,5.23530667 8.2592,5.71317333 C8.2592,6.19104 7.99573333,6.40330667 7.58506667,6.40330667 L7.01546667,6.40330667 L7.01546667,5.01344 Z" id="Fill-68"></path>
            <path d="M8.24256,1.02506667 C8.16576,1.0208 8.12096,1.03466667 8.12096,1.06773333 C8.12096,1.136 8.33642667,1.22986667 8.55829333,1.22986667 C8.74176,1.22986667 8.92522667,1.18293333 9.05322667,1.08586667 C9.00949333,1.024 8.96469333,0.961066667 8.91776,0.894933333 C8.70336,1.008 8.53056,1.0432 8.24256,1.02506667" id="Fill-69"></path>
            <path d="M7.99989333,1.14901333 C7.88896,1.18208 7.78016,1.19381333 7.68629333,1.19381333 C7.47402667,1.19381333 7.31189333,1.14261333 7.22762667,1.13301333 C7.17962667,1.12661333 7.16789333,1.15008 7.16789333,1.17568 C7.16789333,1.30368 7.51562667,1.42421333 7.88362667,1.42421333 C8.02016,1.42421333 8.21962667,1.38794667 8.32202667,1.32821333 C8.15136,1.29408 8.04256,1.22581333 7.99989333,1.14901333" id="Fill-70"></path>
            <path d="M9.25408,0.754133333 C9.17408,0.754133333 9.10154667,0.7904 9.03754667,0.8384 C9.07381333,0.8896 9.10901333,0.939733333 9.14421333,0.987733333 C9.21781333,0.928 9.29141333,0.906666667 9.33834667,0.9664 C9.38741333,1.02933333 9.34901333,1.1008 9.26474667,1.15306667 C9.30954667,1.21386667 9.34901333,1.26506667 9.38314667,1.31093333 C9.48768,1.24586667 9.54848,1.14773333 9.54848,1.0432 C9.54848,0.8896 9.43648,0.754133333 9.25408,0.754133333" id="Fill-71"></path>
            <path d="M9.51552,1.67498667 C9.47818667,1.63552 9.44085333,1.59498667 9.40245333,1.54912 C9.40138667,1.54805333 9.39392,1.53632 9.38645333,1.52885333 C9.19872,1.65578667 9.02698667,1.69952 8.81152,1.68778667 C8.76032,1.68458667 8.72725333,1.68458667 8.72832,1.71658667 C8.73045333,1.76778667 8.87552,1.86165333 9.08138667,1.86165333 C9.24565333,1.86165333 9.38218667,1.78805333 9.51552,1.67498667" id="Fill-72"></path>
            <path d="M7.62698667,1.04693333 C7.77205333,1.04693333 7.91925333,1.01813333 8.02592,0.982933333 C7.83178667,0.940266667 7.76778667,0.8656 7.73685333,0.8016 C7.41685333,0.869866667 7.11392,0.7856 6.98592,0.751466667 C6.95498667,0.741866667 6.88565333,0.719466667 6.88565333,0.767466667 C6.88565333,0.930666667 7.23552,1.04693333 7.62698667,1.04693333" id="Fill-73"></path>
            <path d="M8.928,1.97504 C8.7968,1.95477333 8.72213333,1.93557333 8.6304,1.82997333 C8.49386667,1.89930667 8.36586667,1.93664 8.14293333,1.94410667 C8.04053333,1.94837333 7.88586667,1.92917333 7.8432,1.92917333 C7.8176,1.92917333 7.80266667,1.93557333 7.80266667,1.95904 C7.80266667,2.02090667 7.984,2.15530667 8.33386667,2.15530667 C8.528,2.15530667 8.7744,2.08597333 8.928,1.97504" id="Fill-74"></path>
            <path d="M7.00608,1.21877333 C6.48234667,1.28490667 6.16448,1.10784 6.10688,1.09610667 C6.05888,1.08544 6.04821333,1.10784 6.04821333,1.13237333 C6.04821333,1.29450667 6.45461333,1.50784 6.94848,1.50784 C7.09354667,1.50784 7.25781333,1.49610667 7.35168,1.47584 C7.16394667,1.43317333 7.02421333,1.32970667 7.00608,1.21877333" id="Fill-75"></path>
            <path d="M9.66442667,2.33333333 C9.84682667,2.31306667 9.97589333,2.19466667 10.0644267,2.02186667 C9.99936,2.00373333 9.93642667,1.9792 9.87562667,1.94826667 C9.80309333,2.072 9.72842667,2.14346667 9.59829333,2.19786667 C9.54816,2.2224 9.46816,2.23413333 9.46816,2.25973333 C9.46709333,2.3024 9.56309333,2.34506667 9.66442667,2.33333333" id="Fill-76"></path>
            <path d="M8.34357333,0.901013333 C8.53984,0.901013333 8.70517333,0.867946667 8.84064,0.784746667 C8.84064,0.78368 8.84170667,0.78368 8.84064,0.78368 C8.79904,0.720746667 8.75850667,0.65888 8.71904,0.597013333 C8.71797333,0.597013333 8.71690667,0.597013333 8.71690667,0.595946667 C8.50570667,0.71008 8.27850667,0.725013333 8.08757333,0.717546667 C7.94250667,0.712213333 7.86677333,0.704746667 7.86677333,0.747413333 C7.86677333,0.84128 8.13024,0.901013333 8.34357333,0.901013333" id="Fill-77"></path>
            <path d="M9.41962667,2.12917333 C9.53162667,2.10890667 9.66602667,2.02037333 9.76096,1.88384 C9.70869333,1.84757333 9.65642667,1.80917333 9.60522667,1.76224 C9.44416,1.94890667 9.30442667,1.97024 9.21269333,1.98197333 C9.16896,1.98837333 9.11562667,1.98624 9.11562667,2.01610667 C9.11562667,2.06624 9.24256,2.16117333 9.41962667,2.12917333" id="Fill-78"></path>
            <path d="M7.83637333,3.55317333 C7.94730667,3.44330667 8.06250667,3.34090667 8.18304,3.24597333 L6.30037333,3.24597333 C6.17877333,3.34304 6.06250667,3.44544 5.95157333,3.55317333 L7.83637333,3.55317333 Z" id="Fill-79"></path>
            <path d="M9.00405333,2.10005333 C8.83552,2.20672 8.69472,2.26218667 8.47072,2.28245333 C8.33632,2.29418667 8.24138667,2.27392 8.24138667,2.30805333 C8.24138667,2.36032 8.38325333,2.43818667 8.62538667,2.43818667 C8.87605333,2.43818667 9.14165333,2.32512 9.25578667,2.24512 C9.14912,2.24298667 9.04885333,2.18112 9.00405333,2.10005333" id="Fill-80"></path>
            <path d="M9.05408,2.7136 L7.09674667,2.7136 C6.92501333,2.80746667 6.75968,2.90986667 6.59861333,3.01973333 L8.49621333,3.01973333 C8.67434667,2.90453333 8.85994667,2.80106667 9.05408,2.7136" id="Fill-81"></path>
        </g>
    </g>
</svg>