<?xml version="1.0" encoding="UTF-8"?>
<svg width="29px" height="16px" viewBox="0 0 29 16" version="1.1" xmlns="http://www.w3.org/2000/svg" xmlns:xlink="http://www.w3.org/1999/xlink">
    <title>partner-logo/wfi</title>
    <g id="partner-logo/wfi" stroke="none" stroke-width="1" fill="none" fill-rule="evenodd">
        <path d="M29.3333333,0 L25.2713009,13.6309514 L25.2592593,13.6309514 C24.906039,14.9925367 23.6978654,15.9945097 22.2609013,15.9945097 L22.2609013,15.9945097 L6.07514039e-12,16 L4.06203248,2.37179377 L4.07407407,2.37179377 C4.42461838,1.00883589 5.63546798,0.0068628292 7.07243204,0.0068628292 L7.07243204,0.0068628292 L7.07243204,0 L29.3333333,0 Z M4.63454573,4.9859637 L3.98309311,4.98515913 L6.19473332,13.654285 L6.19607128,13.6529124 L8.05582923,13.6529124 C8.40771149,13.6529124 8.58833546,13.4182037 8.67931643,13.1080038 C8.71811713,12.9721198 9.26801679,11.1328815 9.83263395,9.23874067 L9.83263395,9.23874067 L10.9458128,13.654285 L10.9458128,13.6529124 L12.7921912,13.6529124 C13.1668187,13.6529124 13.3260354,13.4182037 13.4170164,13.1080038 C13.4999696,12.8238826 15.8400535,4.98515913 15.8400535,4.98515913 L15.8400535,4.98515913 L14.0177583,4.98515913 C13.7702366,4.98515913 13.4959557,5.21025993 13.4063127,5.49849876 L13.4063127,5.49849876 L12.1927872,9.52011667 L11.1023536,4.9865317 L11.1036915,4.98515913 L9.23991972,4.98515913 C8.99373594,4.98515913 8.71677918,5.21025993 8.62847412,5.49849876 L8.62847412,5.49849876 L7.42565225,9.5269795 L6.44091711,5.53967573 C6.35395001,5.2514369 6.07431734,5.00437505 5.81742991,4.99476709 C5.65261053,4.98936261 5.09281733,4.98699816 4.63454573,4.9859637 Z M23.4637232,1.74453118 L21.1142736,1.74453118 C19.6451986,1.74453118 18.6350423,2.86454491 18.253725,4.10122673 C18.0262726,4.84652998 17.983458,4.98515913 17.983458,4.98515913 L17.983458,4.98515913 L16.6388129,4.98515913 L16.0634921,6.87380973 L17.4536277,6.87380973 L15.4172596,13.6529124 L17.2850453,13.6529124 C17.6503071,13.6529124 17.8215654,13.3962426 17.9071946,13.1080038 C17.9941616,12.8197649 19.8351882,6.87380973 19.8351882,6.87380973 L19.8351882,6.87380973 L21.4460865,6.87243716 C21.8019826,6.87243716 21.9826066,6.61439478 22.0682357,6.32615596 C22.1538649,6.03791713 22.4923676,4.98515913 22.4923676,4.98515913 L22.4923676,4.98515913 L20.4131849,4.98515913 L20.6152162,4.34554345 C20.7021833,4.05730462 20.980478,3.8129879 21.2373654,3.80063481 L21.2373654,3.80063481 L22.8121389,3.80063481 L23.4637232,1.74453118 Z M25.5549474,4.98515913 L23.6376574,4.98515913 C23.3901356,4.98515913 23.1158548,5.21025993 23.0262118,5.49849876 L23.0262118,5.49849876 L20.6259198,13.6529124 L22.5044092,13.6529124 C22.8562914,13.6529124 23.0355774,13.4182037 23.1265584,13.1080038 C23.2108496,12.8238826 25.5549474,4.98515913 25.5549474,4.98515913 L25.5549474,4.98515913 Z M26,2 L24.7430117,2 C24.5689811,2 24.3814247,2.24933333 24.3219116,2.52933333 C24.2651037,2.80933333 24,4 24,4 L25.264202,3.99733333 C25.471596,3.99733333 25.625789,3.74666667 25.6853021,3.46666667 C25.74211,3.18666667 26,2 26,2 Z" id="Combined-Shape" fill="currentColor"></path>
    </g>
</svg>