<?xml version="1.0" encoding="UTF-8"?>
<svg width="32px" height="32px" viewBox="0 0 32 32" version="1.1" xmlns="http://www.w3.org/2000/svg" xmlns:xlink="http://www.w3.org/1999/xlink">
    <title>icon/accordian-add</title>
    <g id="icon/accordian-add" stroke="none" stroke-width="1" fill="none" fill-rule="evenodd">
        <g id="ic_add_circle_outline_48px" fill="#1D1655" fill-rule="nonzero">
            <path d="M17.6,8 L14.4,8 L14.4,14.4 L8,14.4 L8,17.6 L14.4,17.6 L14.4,24 L17.6,24 L17.6,17.6 L24,17.6 L24,14.4 L17.6,14.4 L17.6,8 Z M16,0 C7.16,0 0,7.16 0,16 C0,24.84 7.16,32 16,32 C24.84,32 32,24.84 32,16 C32,7.16 24.84,0 16,0 Z M16,28.8 C8.944,28.8 3.2,23.056 3.2,16 C3.2,8.944 8.944,3.2 16,3.2 C23.056,3.2 28.8,8.944 28.8,16 C28.8,23.056 23.056,28.8 16,28.8 Z" id="Shape"></path>
        </g>
    </g>
</svg>