<?xml version="1.0" encoding="UTF-8"?>
<svg width="32px" height="32px" viewBox="0 0 32 32" version="1.1" xmlns="http://www.w3.org/2000/svg" xmlns:xlink="http://www.w3.org/1999/xlink">
    <title>assessment-icon</title>
    <g id="assessment-icon" stroke="none" stroke-width="1" fill="none" fill-rule="evenodd">
        <g id="Group-6">
            <circle id="Oval-Copy-3" fill="#1D1655" cx="16" cy="16" r="16"></circle>
            <g id="ic_speaker_notes_48px" transform="translate(8.195122, 8.195122)" fill="#FFFFFF" fill-rule="nonzero">
                <path d="M14.0487805,0 L1.56097561,0 C0.698536585,0 0.00780487805,0.698536585 0.00780487805,1.56097561 L0,15.6097561 L3.12195122,12.4878049 L14.0487805,12.4878049 C14.9112195,12.4878049 15.6097561,11.7892683 15.6097561,10.9268293 L15.6097561,1.56097561 C15.6097561,0.698536585 14.9112195,0 14.0487805,0 Z M4.68292683,9.36585366 L3.12195122,9.36585366 L3.12195122,7.80487805 L4.68292683,7.80487805 L4.68292683,9.36585366 Z M4.68292683,7.02439024 L3.12195122,7.02439024 L3.12195122,5.46341463 L4.68292683,5.46341463 L4.68292683,7.02439024 Z M4.68292683,4.68292683 L3.12195122,4.68292683 L3.12195122,3.12195122 L4.68292683,3.12195122 L4.68292683,4.68292683 Z M10.1463415,9.36585366 L6.24390244,9.36585366 L6.24390244,7.80487805 L10.1463415,7.80487805 L10.1463415,9.36585366 Z M12.4878049,7.02439024 L6.24390244,7.02439024 L6.24390244,5.46341463 L12.4878049,5.46341463 L12.4878049,7.02439024 Z M12.4878049,4.68292683 L6.24390244,4.68292683 L6.24390244,3.12195122 L12.4878049,3.12195122 L12.4878049,4.68292683 Z" id="Shape"></path>
            </g>
        </g>
    </g>
</svg>