<?xml version="1.0" encoding="UTF-8"?>
<svg width="32px" height="32px" viewBox="0 0 32 32" version="1.1" xmlns="http://www.w3.org/2000/svg" xmlns:xlink="http://www.w3.org/1999/xlink">
    <title>icon/calendar</title>
    <g id="icon/calendar" stroke="none" stroke-width="1" fill="none" fill-rule="evenodd">
        <g id="calendar-60" fill="#1D1655" fill-rule="nonzero">
            <path d="M0,30.6666667 C0,31.4026667 0.597333333,32 1.33333333,32 L30.6666667,32 C31.4026667,32 32,31.4026667 32,30.6666667 L32,12 L0,12 L0,30.6666667 Z" id="Path"></path>
            <path d="M32,4.11428571 C32,3.35725714 31.4026667,2.74285714 30.6666667,2.74285714 L26.6666667,2.74285714 L26.6666667,1.37142857 C26.6666667,0.6144 26.0693333,0 25.3333333,0 L20,0 C19.264,0 18.6666667,0.6144 18.6666667,1.37142857 L18.6666667,2.74285714 L13.3333333,2.74285714 L13.3333333,1.37142857 C13.3333333,0.6144 12.736,0 12,0 L6.66666667,0 C5.93066667,0 5.33333333,0.6144 5.33333333,1.37142857 L5.33333333,2.74285714 L1.33333333,2.74285714 C0.597333333,2.74285714 0,3.35725714 0,4.11428571 L0,9.6 L32,9.6 L32,4.11428571 Z M10.6666667,6.85714286 L8,6.85714286 L8,2.74285714 L10.6666667,2.74285714 L10.6666667,6.85714286 Z M24,6.85714286 L21.3333333,6.85714286 L21.3333333,2.74285714 L24,2.74285714 L24,6.85714286 Z" id="Shape"></path>
        </g>
    </g>
</svg>