<?xml version="1.0" encoding="UTF-8"?>
<svg width="32px" height="32px" viewBox="0 0 32 32" version="1.1" xmlns="http://www.w3.org/2000/svg" xmlns:xlink="http://www.w3.org/1999/xlink">
    <title>icon/car</title>
    <g id="icon/car" stroke="none" stroke-width="1" fill="none" fill-rule="evenodd">
        <g id="Group" transform="translate(0.000000, 6.000000)" fill="currentColor">
            <path d="M32,16 C32,7.16354552 24.8366197,-5.32907052e-15 16,-5.32907052e-15 C7.16354552,-5.32907052e-15 -3.55271368e-15,7.16354552 -3.55271368e-15,16 L32,16 Z" id="Fill-14"></path>
            <path d="M11,16.5 C11,18.4329996 9.43299956,20 7.5,20 C5.56700044,20 4,18.4329996 4,16.5 C4,14.5670004 5.56700044,13 7.5,13 C9.43299956,13 11,14.5670004 11,16.5" id="Fill-16"></path>
            <path d="M27,16.5 C27,18.4329996 25.4329996,20 23.5,20 C21.5670004,20 20,18.4329996 20,16.5 C20,14.5670004 21.5670004,13 23.5,13 C25.4329996,13 27,14.5670004 27,16.5" id="Fill-18"></path>
        </g>
    </g>
</svg>