<?xml version="1.0" encoding="UTF-8"?>
<svg width="32px" height="32px" viewBox="0 0 32 32" version="1.1" xmlns="http://www.w3.org/2000/svg" xmlns:xlink="http://www.w3.org/1999/xlink">
    <title>icon/check</title>
    <g id="icon/check" stroke="none" stroke-width="1" fill="none" fill-rule="evenodd">
        <g id="check-circle-07" transform="translate(2.000000, 3.000000)" fill="currentColor" fill-rule="nonzero">
            <path d="M12.8725038,-2 C15.5541726,-2 18.1158671,-1.29615093 20.3341728,0.0167903785 L20.7006725,0.241237425 L18.5604642,3.62051373 C16.8993142,2.56845205 14.9443937,2 12.8725038,2 C6.89719623,2 2,6.89719623 2,12.8725038 C2,18.8478115 6.89719623,23.7450077 12.8725038,23.7450077 C18.8478115,23.7450077 23.7450077,18.8478115 23.7450077,12.8725038 C23.7450077,11.9210702 23.6568611,11.1165562 23.4645716,10.3514342 L23.375739,10.025623 L27.213201,8.89695767 C27.5814515,10.1490093 27.7450077,11.4211128 27.7450077,12.8725038 C27.7450077,21.0569505 21.0569505,27.7450077 12.8725038,27.7450077 C4.68805723,27.7450077 -2,21.0569505 -2,12.8725038 C-2,4.68805723 4.68805723,-2 12.8725038,-2 Z" id="Path"></path>
            <polygon id="Path" points="27.0322581 -1.54117674 29.8606852 1.28725038 12.8725038 18.2754317 4.89507518 10.2980031 7.7235023 7.46957595 12.872 12.618"></polygon>
        </g>
    </g>
</svg>