<svg width="32" height="32" viewBox="0 0 32 32" fill="none" xmlns="http://www.w3.org/2000/svg">
<circle cx="16" cy="16" r="16" fill="#1D1655"/>
<path d="M16 7C11.05 7 7 11.05 7 16C7 20.9502 11.05 25 16 25C16.8501 25 17.5 24.3501 17.5 23.5C17.5 23.1001 17.3501 22.75 17.1001 22.5C16.8501 22.25 16.7002 21.8999 16.7002 21.5C16.7002 20.6499 17.3501 20 18.2002 20H20C22.75 20 25 17.75 25 15C25 10.6001 20.9502 7 16 7ZM10.5 16C9.64989 16 9.00002 15.3501 9.00002 14.5C9.00002 13.6499 9.64989 13 10.5 13C11.3501 13 12 13.6499 12 14.5C12 15.3501 11.3501 16 10.5 16ZM13.5 12C12.6499 12 12 11.3501 12 10.5C12 9.64989 12.6499 9.00002 13.5 9.00002C14.3501 9.00002 15 9.64989 15 10.5C15 11.3501 14.3501 12 13.5 12ZM18.5 12C17.6499 12 17 11.3501 17 10.5C17 9.64989 17.6499 9.00002 18.5 9.00002C19.3501 9.00002 20 9.64989 20 10.5C20 11.3501 19.3501 12 18.5 12ZM21.5 16C20.6499 16 20 15.3501 20 14.5C20 13.6499 20.6499 13 21.5 13C22.3501 13 23 13.6499 23 14.5C23 15.3501 22.3501 16 21.5 16Z" fill="white"/>
</svg>
