<?xml version="1.0" encoding="UTF-8"?>
<svg width="32px" height="32px" viewBox="0 0 32 32" version="1.1" xmlns="http://www.w3.org/2000/svg" xmlns:xlink="http://www.w3.org/1999/xlink">
    <title>icon/compass</title>
    <g id="icon/compass" stroke="none" stroke-width="1" fill="none" fill-rule="evenodd">
        <g id="compass-05" fill="#1D1655" fill-rule="nonzero">
            <path d="M16,0 C7.17773913,0 0,7.17773913 0,16 C0,24.8222609 7.17773913,32 16,32 C24.8222609,32 32,24.8222609 32,16 C32,7.17773913 24.8222609,0 16,0 Z M23.5958261,9.31756522 L19.421913,19.0566957 C19.3516522,19.2208696 19.2208696,19.3516522 19.0566957,19.421913 L9.31756522,23.5958261 C9.22921739,23.634087 9.136,23.6521739 9.04347826,23.6521739 C8.8626087,23.6521739 8.68452174,23.5812174 8.55165217,23.4483478 C8.3506087,23.2473043 8.29217391,22.944 8.40417391,22.6824348 L12.578087,12.9433043 C12.6483478,12.7791304 12.7791304,12.6483478 12.9433043,12.578087 L22.6824348,8.40417391 C22.9433043,8.29147826 23.2473043,8.34991304 23.4483478,8.55165217 C23.6493913,8.75269565 23.7078261,9.056 23.5958261,9.31756522 Z" id="Shape"></path>
            <circle id="Oval" cx="16" cy="16" r="1.39130435"></circle>
        </g>
    </g>
</svg>