<?xml version="1.0" encoding="UTF-8"?>
<svg width="32px" height="32px" viewBox="0 0 32 32" version="1.1" xmlns="http://www.w3.org/2000/svg" xmlns:xlink="http://www.w3.org/1999/xlink">
    <title>icon/happy</title>
    <g id="icon/happy" stroke="none" stroke-width="1" fill="none" fill-rule="evenodd">
        <path d="M16.0000997,0 C7.16349744,0 0,7.16354208 0,16 C0,24.8366574 7.16349744,32 16.0000997,32 C24.836702,32 32,24.8366574 32,16 C32,7.16354208 24.836702,0 16.0000997,0 M22.278481,8.69724771 C23.6109418,8.69724771 24.6909111,9.77722377 24.6909111,11.1094934 C24.6909111,12.4417631 23.6109418,13.5217391 22.278481,13.5217391 C20.9464191,13.5217391 19.8664498,12.4417631 19.8664498,11.1094934 C19.8664498,9.77722377 20.9464191,8.69724771 22.278481,8.69724771 M9.72969604,8.69724771 C11.0619574,8.69724771 12.1417273,9.77722377 12.1417273,11.1094934 C12.1417273,12.4417631 11.0619574,13.5217391 9.72969604,13.5217391 C8.3974347,13.5217391 7.31746536,12.4417631 7.31746536,11.1094934 C7.31746536,9.77722377 8.3974347,8.69724771 9.72969604,8.69724771 M16.004288,26.7558835 C10.5095077,26.7558835 6.05520757,22.3015556 6.05520757,16.80714 L25.9529695,16.80714 C25.9529695,22.3015556 21.4986694,26.7558835 16.004288,26.7558835" id="Fill-1"  fill="currentColor"></path>
    </g>
</svg>