<?xml version="1.0" encoding="UTF-8"?>
<svg width="32px" height="32px" viewBox="0 0 32 32" version="1.1" xmlns="http://www.w3.org/2000/svg" xmlns:xlink="http://www.w3.org/1999/xlink">
    <title>icon/phone</title>
    <g id="icon/phone" stroke="none" stroke-width="1" fill="none" fill-rule="evenodd">
        <path d="M26.3166277,32 C11.8052387,32.000537 -0.000537041155,20.1947613 0,5.68337228 C0,5.54213046 0.0574634036,5.40518496 0.157353058,5.30529531 L5.14807651,0.314571857 C5.56750565,-0.104857286 6.24739976,-0.104857286 6.6668289,0.314571857 L13.4260289,7.07377183 C13.845458,7.49320098 13.845458,8.17309508 13.4260289,8.59252422 L8.81499352,13.2035596 L18.7964404,23.1850065 L23.4074758,18.5739711 C23.8269049,18.154542 24.506799,18.154542 24.9262282,18.5739711 L31.6854281,25.3331711 C32.1048573,25.7526002 32.1048573,26.4324943 31.6854281,26.8519235 L26.6947047,31.8426469 C26.594815,31.9425366 26.4578695,32 26.3166277,32 Z" id="Path-Copy" fill="currentColor" fill-rule="nonzero"></path>
    </g>
</svg>