<?xml version="1.0" encoding="UTF-8"?>
<svg width="32px" height="32px" viewBox="0 0 32 32" version="1.1" xmlns="http://www.w3.org/2000/svg" xmlns:xlink="http://www.w3.org/1999/xlink">
    <title>icon/pram</title>
    <g id="icon/pram" stroke="none" stroke-width="1" fill="none" fill-rule="evenodd">
        <g id="Group" transform="translate(0.000000, 5.000000)" fill="#1C1754">
            <path d="M31,10 L31,10 C31,4.47710905 26.522891,0 21,0 L21,10 L31,10 Z" id="Fill-24"></path>
            <path d="M26.4999231,23 C23.4672164,23 21,20.3083611 21,17.0001677 C21,13.6916389 23.4672164,11 26.4999231,11 C29.5327836,11 32,13.6916389 32,17.0001677 C32,20.3083611 29.5327836,23 26.4999231,23 M26.4999231,13.2617617 C24.6104969,13.2617617 23.0731568,14.9386688 23.0731568,17.0001677 C23.0731568,19.0613312 24.6104969,20.7384061 26.4999231,20.7384061 C28.3893494,20.7384061 29.9265357,19.0613312 29.9265357,17.0001677 C29.9265357,14.9386688 28.3893494,13.2617617 26.4999231,13.2617617" id="Fill-26"></path>
            <path d="M5.49992313,23 C2.46721644,23 0,20.3083611 0,17.0001677 C0,13.6916389 2.46721644,11 5.49992313,11 C8.53278356,11 11,13.6916389 11,17.0001677 C11,20.3083611 8.53278356,23 5.49992313,23 M5.49992313,13.2617617 C3.61049689,13.2617617 2.0733105,14.9386688 2.0733105,17.0001677 C2.0733105,19.0613312 3.61049689,20.7384061 5.49992313,20.7384061 C7.38934936,20.7384061 8.92653575,19.0613312 8.92653575,17.0001677 C8.92653575,14.9386688 7.38934936,13.2617617 5.49992313,13.2617617" id="Fill-28"></path>
            <path d="M27.7039839,17.7039839 L27.7039839,17.7039839 C27.3092957,18.098672 26.6693562,18.098672 26.274668,17.7039839 L20.2960161,11.725332 C19.901328,11.3306438 19.901328,10.6907043 20.2960161,10.2960161 C20.6907043,9.90132795 21.3306438,9.90132795 21.725332,10.2960161 L27.7039839,16.274668 C28.098672,16.6693562 28.098672,17.3092957 27.7039839,17.7039839" id="Fill-30"></path>
            <path d="M4.29601614,18.7038562 L4.29601614,18.7038562 C4.69070432,19.0987146 5.33064381,19.0987146 5.72533199,18.7038562 L11.7039839,12.7253411 C12.098672,12.3304827 12.098672,11.6905399 11.7039839,11.2960177 C11.3092957,10.9013274 10.6693562,10.9013274 10.274668,11.2960177 L4.29601614,17.2745329 C3.90132795,17.6693912 3.90132795,18.309166 4.29601614,18.7038562" id="Fill-32"></path>
            <path d="M19.5570971,6 L12.1138748,6 L5,6 L5,11.2604697 L5,12.3720206 L5.07810424,12.3720206 C5.58410472,15.9696558 8.50941999,18.7675625 12.1138748,18.9857891 L12.1138748,19 L19.9586392,19 L19.9512919,17.1552012 C20.2814381,13.3710279 23.2738367,10.3710656 27,10.1286642 L27,6 L19.5570971,6 Z" id="Fill-34"></path>
        </g>
    </g>
</svg>