<?xml version="1.0" encoding="UTF-8"?>
<svg width="32px" height="32px" viewBox="0 0 32 32" version="1.1" xmlns="http://www.w3.org/2000/svg" xmlns:xlink="http://www.w3.org/1999/xlink">
    <title>icon/search</title>
    <g id="icon/search" stroke="none" stroke-width="1" fill="none" fill-rule="evenodd">
        <g id="ic_search_48px" fill="#1D1655" fill-rule="nonzero">
            <path d="M22.8702115,20.1257862 L21.4156661,20.1257862 L20.9125214,19.6226415 C22.705546,17.5460263 23.78502,14.8473413 23.78502,11.89251 C23.78502,5.32418525 18.4608348,0 11.89251,0 C5.32418525,0 0,5.32418525 0,11.89251 C0,18.4608348 5.32418525,23.78502 11.89251,23.78502 C14.8473413,23.78502 17.5460263,22.705546 19.6226415,20.9216695 L20.1257862,21.4248142 L20.1257862,22.8702115 L29.2738708,32 L32,29.2738708 L22.8702115,20.1257862 Z M11.89251,20.1257862 C7.34591195,20.1257862 3.65923385,16.4391081 3.65923385,11.89251 C3.65923385,7.34591195 7.34591195,3.65923385 11.89251,3.65923385 C16.4391081,3.65923385 20.1257862,7.34591195 20.1257862,11.89251 C20.1257862,16.4391081 16.4391081,20.1257862 11.89251,20.1257862 Z" id="Shape"></path>
        </g>
    </g>
</svg>