<svg width="16" height="16" viewBox="0 0 16 16" fill="none" xmlns="http://www.w3.org/2000/svg">
<path d="M15.5865 6.74336L13.587 6.47674C13.4571 5.99938 13.2677 5.54695 13.0273 5.12725L14.2532 3.52423C14.3297 3.42402 14.3204 3.28253 14.2313 3.1934L12.807 1.76914C12.7176 1.67976 12.5764 1.66994 12.4762 1.74723L10.8731 2.9731C10.4534 2.73266 10.001 2.54333 9.52365 2.41342L9.25703 0.413857C9.24016 0.288475 9.13341 0.195068 9.00727 0.195068H6.99311C6.86697 0.195068 6.76022 0.288475 6.74361 0.413605L6.47698 2.41316C5.99962 2.54308 5.54719 2.73241 5.12749 2.97285L3.52447 1.74698C3.42427 1.66994 3.28277 1.67951 3.19364 1.76888L1.76938 3.19315C1.68025 3.28228 1.67069 3.42377 1.74748 3.52397L2.97335 5.127C2.7329 5.5467 2.54357 5.99913 2.41366 6.47648L0.414101 6.74311C0.288719 6.75998 0.195312 6.86673 0.195312 6.99287V9.00703C0.195312 9.13316 0.288719 9.23991 0.413849 9.25653L2.41341 9.52316C2.54332 10.0005 2.73265 10.4529 2.97309 10.8726L1.74722 12.4757C1.67069 12.5759 1.68 12.7174 1.76913 12.8065L3.19339 14.2308C3.24224 14.2796 3.30669 14.3045 3.37165 14.3045C3.42527 14.3045 3.47915 14.2877 3.52447 14.2527L5.12749 13.0268C5.54719 13.2672 5.99962 13.4566 6.47698 13.5865L6.74361 15.586C6.76022 15.7114 6.86697 15.8048 6.99311 15.8048H9.00727C9.13341 15.8048 9.24016 15.7114 9.25678 15.5863L9.5234 13.5867C10.0008 13.4568 10.4532 13.2675 10.8729 13.027L12.4759 14.2529C12.5212 14.2879 12.5751 14.3048 12.6287 14.3048C12.6937 14.3048 12.7581 14.2799 12.807 14.231L14.2313 12.8067C14.3204 12.7176 14.3299 12.5761 14.2532 12.4759L13.0273 10.8729C13.2677 10.4532 13.4571 10.0008 13.587 9.52341L15.5865 9.25678C15.7117 9.23991 15.8051 9.13316 15.8051 9.00703V6.99287C15.8051 6.86673 15.7117 6.75998 15.5865 6.74336ZM8.00019 10.2659C6.74864 10.2659 5.73426 9.2515 5.73426 7.99995C5.73426 6.7484 6.74864 5.73401 8.00019 5.73401C9.25174 5.73401 10.2661 6.7484 10.2661 7.99995C10.2661 9.2515 9.25174 10.2659 8.00019 10.2659Z" fill="white"/>
</svg>
