<?xml version="1.0" encoding="UTF-8"?>
<svg width="32px" height="32px" viewBox="0 0 32 32" version="1.1" xmlns="http://www.w3.org/2000/svg" xmlns:xlink="http://www.w3.org/1999/xlink">
    <title>service-icon</title>
    <g id="service-icon" stroke="none" stroke-width="1" fill="none" fill-rule="evenodd">
        <g id="Group-7">
            <circle id="Oval-Copy-4" fill="#1D1655" cx="16" cy="16" r="16"></circle>
            <g id="settings-gear-63" transform="translate(8.195122, 8.195122)" fill="#FFFFFF" fill-rule="nonzero">
                <path d="M15.3912195,6.54829268 L13.3916601,6.28166798 C13.2617467,5.80431157 13.0724154,5.35188041 12.8319748,4.93217939 L14.0578442,3.32915814 C14.1343824,3.22895358 14.1250669,3.08745869 14.0359402,2.99833202 L12.6116758,1.57406766 C12.5222974,1.48468922 12.3810543,1.47487018 12.2808497,1.55216365 L10.6778285,2.77803304 C10.2581275,2.53759245 9.8056963,2.34826121 9.32833989,2.21834776 L9.06171518,0.218788356 C9.04484658,0.0934067663 8.93809599,0 8.81195909,0 L6.79779701,0 C6.67166011,0 6.56490952,0.0934067663 6.54829268,0.218536585 L6.28166798,2.21809599 C5.80431157,2.34800944 5.35188041,2.53734068 4.93217939,2.77778127 L3.32915814,1.55191188 C3.22895358,1.47487018 3.08745869,1.48443745 2.99833202,1.57381589 L1.57406766,2.99808025 C1.48494099,3.08720692 1.47537372,3.22870181 1.55216365,3.32890637 L2.77803304,4.93192762 C2.53759245,5.35162864 2.34826121,5.8040598 2.21834776,6.28141621 L0.218788356,6.54804091 C0.0934067663,6.56490952 0,6.67166011 0,6.79779701 L0,8.81195909 C0,8.93809599 0.0934067663,9.04484658 0.218536585,9.06146341 L2.21809599,9.32808812 C2.34800944,9.80544453 2.53734068,10.2578757 2.77778127,10.6775767 L1.55191188,12.280598 C1.47537372,12.3808025 1.48468922,12.5222974 1.57381589,12.6114241 L2.99808025,14.0356884 C3.04692368,14.0845319 3.11137687,14.1094571 3.1763336,14.1094571 C3.22996066,14.1094571 3.2838395,14.0925885 3.32915814,14.0575924 L4.93217939,12.8317231 C5.35188041,13.0721637 5.80431157,13.2614949 6.28166798,13.3914083 L6.54829268,15.3909677 C6.56490952,15.5163493 6.67166011,15.6097561 6.79779701,15.6097561 L8.81195909,15.6097561 C8.93809599,15.6097561 9.04484658,15.5163493 9.06146341,15.3912195 L9.32808812,13.3916601 C9.80544453,13.2617467 10.2578757,13.0724154 10.6775767,12.8319748 L12.280598,14.0578442 C12.3259166,14.0928403 12.3797954,14.1097089 12.4334225,14.1097089 C12.4983792,14.1097089 12.5628324,14.0847836 12.6116758,14.0359402 L14.0359402,12.6116758 C14.1250669,12.5225492 14.1346341,12.3810543 14.0578442,12.2808497 L12.8319748,10.6778285 C13.0724154,10.2581275 13.2617467,9.8056963 13.3916601,9.32833989 L15.3912195,9.06171518 C15.5163493,9.04484658 15.6097561,8.93809599 15.6097561,8.81195909 L15.6097561,6.79779701 C15.6097561,6.67166011 15.5163493,6.56490952 15.3912195,6.54829268 Z M7.80487805,10.0708104 C6.55332809,10.0708104 5.53894571,9.05642801 5.53894571,7.80487805 C5.53894571,6.55332809 6.55332809,5.53894571 7.80487805,5.53894571 C9.05642801,5.53894571 10.0708104,6.55332809 10.0708104,7.80487805 C10.0708104,9.05642801 9.05642801,10.0708104 7.80487805,10.0708104 Z" id="Shape"></path>
            </g>
        </g>
    </g>
</svg>