<?xml version="1.0" encoding="UTF-8"?>
<svg width="32px" height="32px" viewBox="0 0 32 32" version="1.1" xmlns="http://www.w3.org/2000/svg" xmlns:xlink="http://www.w3.org/1999/xlink">
    <title>icon/tool</title>
    <g id="icon/tool" stroke="none" stroke-width="1" fill="none" fill-rule="evenodd">
        <g id="Group-3" transform="translate(2.000000, 2.000000)" fill="currentColor">
            <path d="M3.98489249,0.253129367 C6.06739389,-0.388786344 8.42769934,0.196760059 9.95006549,1.93481373 C11.6282077,3.85075751 11.7679328,6.57302748 10.4754238,8.61743609 L10.4754238,8.61743609 L19.7540788,19.2111898 C21.9647816,18.2537285 24.6349929,18.7765743 26.3011998,20.6788342 C28.3559208,23.0249003 28.1054856,26.579843 25.7418877,28.6193499 C23.378084,30.6586526 19.7962638,30.4100966 17.7413371,28.0640305 C16.0751302,26.1615664 15.925116,23.4644175 17.1881983,21.4249106 L17.1881983,21.4249106 L7.90398728,10.8250298 L7.95687294,10.779485 C5.74226027,11.7483835 3.06134838,11.2277844 1.39020274,9.32001008 C-0.132163409,7.58175217 -0.387743127,5.18054217 0.542591741,3.22313836 L0.542591741,3.22313836 L4.02954691,7.20432289 C4.87036715,8.05741927 6.24848097,8.12747243 7.16626321,7.33564703 C8.08404545,6.54382164 8.20607345,5.17952099 7.46732048,4.23860286 L7.46732048,4.23860286 L7.47205344,4.23451813 Z M23.665551,22.7161325 C22.8303766,21.7553206 21.3691861,21.6532396 20.4083918,22.4882209 C19.4475975,23.3236189 19.3455183,24.784628 20.1806927,25.7454398 C21.0158671,26.7062517 22.4768493,26.8083328 23.4376436,25.9731431 C24.3984379,25.1379534 24.5007254,23.676736 23.665551,22.7161325 Z" id="Fill-1"></path>
        </g>
    </g>
</svg>