<?xml version="1.0" encoding="UTF-8"?>
<svg width="32px" height="32px" viewBox="0 0 32 32" version="1.1" xmlns="http://www.w3.org/2000/svg" xmlns:xlink="http://www.w3.org/1999/xlink">
    <title>icon/truck-2</title>
    <defs>
        <polygon id="path-1" points="0 0 32 0 32 28.5454545 0 28.5454545"></polygon>
    </defs>
    <g id="icon/truck-2" stroke="none" stroke-width="1" fill="none" fill-rule="evenodd">
        <g id="Group-3" transform="translate(0.000000, 3.000000)">
            <mask id="mask-2" fill="white">
                <use xlink:href="#path-1"></use>
            </mask>
            <g id="Clip-2"></g>
            <path d="M32,13.0346815 C32,12.8825704 31.9743635,12.7366605 31.9290905,12.5996875 L31.9818181,12.5996875 L31.9818181,6.62394619 L32,6.62394619 C32,6.46764017 31.9925454,6.31334042 31.9818181,6.16013499 L31.9818181,6.1353303 L31.9801817,6.1353303 C31.740544,2.84068401 29.1001653,0.215581926 25.8050557,0.0138614436 L25.8050557,0 L6.10239831,0 L6.10239831,0.0209745529 C2.85074347,0.265738466 0.257274189,2.87150748 0.0196364752,6.1353303 L0.0180001023,6.1353303 L0.0180001023,6.16013499 C0.00745458781,6.31334042 0,6.46764017 0,6.62394619 L0.0180001023,6.62394619 L0.0180001023,12.5996875 L0.0707276746,12.5996875 C0.0254546901,12.7366605 0,12.8825704 0,13.0346815 L0,21.144538 L0,21.1447203 L0,27.2846103 C0,27.9809655 0.56273047,28.5454545 1.25709805,28.5454545 L3.67983909,28.5454545 C4.37402485,28.5454545 4.9365735,27.9809655 4.9365735,27.2846103 L4.9365735,25.2929397 L27.0632447,25.2929397 L27.0632447,27.2846103 C27.0632447,27.9809655 27.6259751,28.5454545 28.3203427,28.5454545 L30.7430838,28.5454545 C31.4370877,28.5454545 32,27.9809655 32,27.2846103 L32,23.9106255 L32,23.9102607 L32,13.0346815 Z M3.27272727,6.31251519 C3.42864292,4.70117307 4.74258166,3.40617251 6.36090985,3.28454463 L6.51791455,3.27272727 L25.4646607,3.27272727 L25.591535,3.28054491 C27.2349113,3.38108335 28.5697235,4.67808377 28.7272727,6.31233339 L28.7272727,11.0909091 L3.27272727,11.0909091 L3.27272727,6.31251519 Z M4.81818182,19.6363636 C3.86420543,19.6363636 3.09090909,18.8630673 3.09090909,17.9090909 C3.09090909,16.9551145 3.86420543,16.1818182 4.81818182,16.1818182 C5.77233692,16.1818182 6.54545455,16.9551145 6.54545455,17.9090909 C6.54545455,18.8630673 5.77233692,19.6363636 4.81818182,19.6363636 L4.81818182,19.6363636 Z M19.8226103,19.6363636 L12.7230251,19.6363636 C10.8174289,19.6363636 9.27272727,18.0897604 9.27272727,16.1818182 L12.7230251,16.1818182 L19.8226103,16.1818182 L23.2727273,16.1818182 C23.2727273,18.0897604 21.7280257,19.6363636 19.8226103,19.6363636 L19.8226103,19.6363636 Z M26,17.9090909 C26,16.9551145 26.7732963,16.1818182 27.7272727,16.1818182 C28.6812491,16.1818182 29.4545455,16.9551145 29.4545455,17.9090909 C29.4545455,18.8630673 28.6812491,19.6363636 27.7272727,19.6363636 C26.7732963,19.6363636 26,18.8630673 26,17.9090909 L26,17.9090909 Z" id="Fill-1" fill="currentColor" mask="url(#mask-2)"></path>
        </g>
    </g>
</svg>