<?xml version="1.0" encoding="UTF-8"?>
<svg width="32px" height="32px" viewBox="0 0 32 32" version="1.1" xmlns="http://www.w3.org/2000/svg" xmlns:xlink="http://www.w3.org/1999/xlink">
    <title>icon/truck-3</title>
    <g id="icon/truck-3" stroke="none" stroke-width="1" fill="none" fill-rule="evenodd">
        <g id="Group" transform="translate(0.000000, 5.000000)" fill="currentColor">
            <path d="M19,6 L19,6 C26.1797576,6 32,11.8202424 32,19 L19,19 L19,6 Z" id="Fill-42"></path>
            <path d="M29,18.999919 C29,20.6567164 27.6568784,22 26.000081,22 C24.3431216,22 23,20.6567164 23,18.999919 C23,17.3432836 24.3431216,16 26.000081,16 C27.6568784,16 29,17.3432836 29,18.999919" id="Fill-44"></path>
            <polygon id="Fill-47" points="0 19 19 19 19 0 0 0"></polygon>
            <path d="M13,18.999919 C13,20.6567164 11.6568784,22 9.99991903,22 C8.34312164,22 7,20.6567164 7,18.999919 C7,17.3432836 8.34312164,16 9.99991903,16 C11.6568784,16 13,17.3432836 13,18.999919" id="Fill-48"></path>
        </g>
    </g>
</svg>