<?xml version="1.0" encoding="UTF-8"?>
<svg width="32px" height="32px" viewBox="0 0 32 32" version="1.1" xmlns="http://www.w3.org/2000/svg" xmlns:xlink="http://www.w3.org/1999/xlink">
    <title>icon/wheel</title>
    <g id="icon/wheel" stroke="none" stroke-width="1" fill="none" fill-rule="evenodd">
        <path d="M16.0001012,0 C7.1634301,0 0,7.16338481 0,16 C0,24.8366152 7.1634301,32 16.0001012,32 C24.8367722,32 32,24.8366152 32,16 C32,7.16338481 24.8367722,0 16.0001012,0 L16.0001012,0 Z M16.0001012,3.81631698 C21.6833332,3.81631698 26.469543,7.72773836 27.8095118,12.9999621 L4.19048824,12.9999621 C5.530457,7.72773836 10.3168691,3.81631698 16.0001012,3.81631698 L16.0001012,3.81631698 Z M12.0884527,27.8279521 C7.64765621,27.0930177 4.25180061,23.2639527 4.19048824,18.6295355 C9.26970235,18.6305472 13.3871419,22.7483654 13.3871419,27.8279521 L12.0884527,27.8279521 Z M16.0001012,20.8586207 C14.5579451,20.8586207 13.3887607,19.6894437 13.3887607,18.2472967 C13.3887607,16.8051498 14.5579451,15.6359727 16.0001012,15.6359727 C17.4422572,15.6359727 18.6112393,16.8051498 18.6112393,18.2472967 C18.6112393,19.6894437 17.4422572,20.8586207 16.0001012,20.8586207 L16.0001012,20.8586207 Z M27.8095118,19.9290258 C27.074775,24.3697942 23.2458882,27.765426 18.6112393,27.8271427 C18.6122511,22.7477583 22.7302976,18.6303449 27.8095118,18.6303449 L27.8095118,19.9290258 Z" id="Fill-1"  fill="currentColor"></path>
    </g>
</svg>